SplineFontDB: 3.0
FontName: Wt-Position-Mono
FullName: Wt-Position Mono Bold
FamilyName: Wt-Position Mono
Weight: Bold
Copyright: Copyright xampanoid 2016\n"Wt-Position Mono" is based on "Wt-Position" by "xampanoid" (http://fontstruct.com/fontstructors/show/1345511/xampanoid)
Version: 1.0
ItalicAngle: 0
UnderlinePosition: 77
UnderlineWidth: 51
Ascent: 819
Descent: 205
InvalidEm: 0
sfntRevision: 0x00010000
LayerCount: 2
Layer: 0 1 "Back" 1
Layer: 1 1 "Fore" 0
XUID: [1021 168 -1253485981 24802]
StyleMap: 0x0040
FSType: 4
OS2Version: 2
OS2_WeightWidthSlopeOnly: 0
OS2_UseTypoMetrics: 0
CreationTime: 1516913021
ModificationTime: 1519183159
PfmFamily: 81
TTFWeight: 400
TTFWidth: 5
LineGap: 0
VLineGap: 0
Panose: 0 0 4 0 0 0 0 0 0 0
OS2TypoAscent: 448
OS2TypoAOffset: 0
OS2TypoDescent: -128
OS2TypoDOffset: 0
OS2TypoLinegap: 0
OS2WinAscent: 512
OS2WinAOffset: 0
OS2WinDescent: 128
OS2WinDOffset: 0
HheadAscent: 512
HheadAOffset: 0
HheadDescent: -128
HheadDOffset: 0
OS2SubXSize: 512
OS2SubYSize: 512
OS2SubXOff: 0
OS2SubYOff: -64
OS2SupXSize: 512
OS2SupYSize: 512
OS2SupXOff: 0
OS2SupYOff: 512
OS2StrikeYSize: 51
OS2StrikeYPos: 204
OS2CapHeight: 448
OS2XHeight: 320
OS2Vendor: 'FSTR'
OS2CodePages: 00000001.00000000
OS2UnicodeRanges: 00000001.00000000.00000000.00000000
MarkAttachClasses: 1
DEI: 91125
ShortTable: maxp 16
  1
  0
  98
  52
  13
  0
  0
  2
  0
  0
  0
  0
  0
  0
  0
  0
EndShort

StartChar: .notdef
Encoding: 65536 -1 0
Width: 384
Flags: W
LayerCount: 2
Fore
SplineSet
224 63 m 1,0,-1
 224 134 l 1,1,-1
 152 134 l 1,2,-1
 152 63 l 1,3,-1
 224 63 l 1,0,-1
295 146 m 1,4,-1
 295 218 l 1,5,-1
 152 218 l 1,6,-1
 152 146 l 1,7,-1
 295 146 l 1,4,-1
224 229 m 1,8,-1
 224 301 l 1,9,-1
 152 301 l 1,10,-1
 152 229 l 1,11,-1
 224 229 l 1,8,-1
295 313 m 1,12,-1
 295 383 l 1,13,-1
 224 383 l 2,14,15
 194 383 194 383 173 363 c 0,16,17
 152 342 152 342 152 313 c 1,18,-1
 295 313 l 1,12,-1
0 0 m 1,19,-1
 0 448 l 1,20,-1
 448 448 l 1,21,-1
 448 0 l 1,22,-1
 0 0 l 1,19,-1
EndSplineSet
Validated: 1
EndChar

StartChar: exclam
Encoding: 33 33 4
Width: 384
Flags: W
LayerCount: 2
Fore
SplineSet
118 0 m 1,0,-1
 118 64 l 1,1,-1
 118 74 l 1,2,-1
 128 74 l 1,3,-1
 192 74 l 1,4,-1
 202 74 l 1,5,-1
 202 64 l 1,6,-1
 202 0 l 1,7,-1
 202 -10 l 1,8,-1
 192 -10 l 1,9,-1
 128 -10 l 1,10,-1
 118 -10 l 1,11,-1
 118 0 l 1,0,-1
118 128 m 1,12,-1
 118 448 l 1,13,-1
 118 458 l 1,14,-1
 128 458 l 1,15,-1
 192 458 l 1,16,-1
 202 458 l 1,17,-1
 202 448 l 1,18,-1
 202 128 l 1,19,-1
 202 118 l 1,20,-1
 192 118 l 1,21,-1
 128 118 l 1,22,-1
 118 118 l 1,23,-1
 118 128 l 1,12,-1
EndSplineSet
Validated: 1
EndChar

StartChar: quotedbl
Encoding: 34 34 5
Width: 384
Flags: W
LayerCount: 2
Fore
SplineSet
54 384 m 1,0,-1
 54 512 l 1,1,-1
 54 522 l 1,2,-1
 64 522 l 1,3,-1
 128 522 l 1,4,-1
 138 522 l 1,5,-1
 138 512 l 1,6,-1
 138 384 l 1,7,-1
 138 374 l 1,8,-1
 128 374 l 1,9,-1
 64 374 l 1,10,-1
 54 374 l 1,11,-1
 54 384 l 1,0,-1
182 384 m 1,12,-1
 182 512 l 1,13,-1
 182 522 l 1,14,-1
 192 522 l 1,15,-1
 256 522 l 1,16,-1
 266 522 l 1,17,-1
 266 512 l 1,18,-1
 266 384 l 1,19,-1
 266 374 l 1,20,-1
 256 374 l 1,21,-1
 192 374 l 1,22,-1
 182 374 l 1,23,-1
 182 384 l 1,12,-1
EndSplineSet
Validated: 1
EndChar

StartChar: numbersign
Encoding: 35 35 6
Width: 384
Flags: W
LayerCount: 2
Fore
SplineSet
182 202 m 1,0,-1
 182 246 l 1,1,-1
 138 246 l 1,2,-1
 138 202 l 1,3,-1
 182 202 l 1,0,-1
54 0 m 1,4,-1
 54 118 l 1,5,-1
 0 118 l 1,6,-1
 -10 118 l 1,7,-1
 -10 128 l 1,8,-1
 -10 192 l 1,9,-1
 -10 202 l 1,10,-1
 0 202 l 1,11,-1
 54 202 l 1,12,-1
 54 246 l 1,13,-1
 0 246 l 1,14,-1
 -10 246 l 1,15,-1
 -10 256 l 1,16,-1
 -10 320 l 1,17,-1
 -10 330 l 1,18,-1
 0 330 l 1,19,-1
 54 330 l 1,20,-1
 54 448 l 1,21,-1
 54 458 l 1,22,-1
 64 458 l 1,23,-1
 128 458 l 1,24,-1
 138 458 l 1,25,-1
 138 448 l 1,26,-1
 138 330 l 1,27,-1
 182 330 l 1,28,-1
 182 448 l 1,29,-1
 182 458 l 1,30,-1
 192 458 l 1,31,-1
 256 458 l 1,32,-1
 266 458 l 1,33,-1
 266 448 l 1,34,-1
 266 330 l 1,35,-1
 320 330 l 1,36,-1
 330 330 l 1,37,-1
 330 320 l 1,38,-1
 330 256 l 1,39,-1
 330 246 l 1,40,-1
 320 246 l 1,41,-1
 266 246 l 1,42,-1
 266 202 l 1,43,-1
 320 202 l 1,44,-1
 330 202 l 1,45,-1
 330 192 l 1,46,-1
 330 128 l 1,47,-1
 330 118 l 1,48,-1
 320 118 l 1,49,-1
 266 118 l 1,50,-1
 266 0 l 1,51,-1
 266 -10 l 1,52,-1
 256 -10 l 1,53,-1
 192 -10 l 1,54,-1
 182 -10 l 1,55,-1
 182 0 l 1,56,-1
 182 118 l 1,57,-1
 138 118 l 1,58,-1
 138 0 l 1,59,-1
 138 -10 l 1,60,-1
 128 -10 l 1,61,-1
 64 -10 l 1,62,-1
 54 -10 l 1,63,-1
 54 0 l 1,4,-1
EndSplineSet
Validated: 1
EndChar

StartChar: dollar
Encoding: 36 36 7
Width: 424
Flags: W
LayerCount: 2
Fore
SplineSet
129.086587436 -64 m 1,0,-1
 129.086587436 -54 l 1,1,-1
 129.086587436 -2.6728515625 l 1,2,-1
 74 -2.6728515625 l 1,3,-1
 64 -2.6728515625 l 1,4,-1
 64 6.83203125 l 1,5,-1
 64 58.158203125 l 1,6,-1
 10 58.158203125 l 1,7,-1
 0 58.158203125 l 1,8,-1
 0 67.6630859375 l 1,9,-1
 0 128.495117188 l 1,10,-1
 0 138 l 1,11,-1
 10 138 l 1,12,-1
 74 138 l 1,13,-1
 84 138 l 1,14,-1
 84 128 l 1,15,-1
 84 74 l 1,16,-1
 129.086587436 74 l 1,17,-1
 129.086587436 182 l 1,18,-1
 74 182 l 1,19,-1
 64 182 l 1,20,-1
 64 192 l 1,21,-1
 64 246 l 1,22,-1
 10 246 l 1,23,-1
 0 246 l 1,24,-1
 0 256 l 1,25,-1
 0 384 l 1,26,-1
 0 394 l 1,27,-1
 10 394 l 1,28,-1
 64 394 l 1,29,-1
 64 443.423828125 l 1,30,-1
 64 452.576171875 l 1,31,-1
 74 452.576171875 l 1,32,-1
 129.086587436 452.576171875 l 1,33,-1
 129.086587436 502 l 1,34,-1
 129.086587436 512 l 1,35,-1
 141.208828523 512 l 1,36,-1
 218.791171477 512 l 1,37,-1
 230.913412564 512 l 1,38,-1
 230.913412564 502 l 1,39,-1
 230.913412564 452.576171875 l 1,40,-1
 286 452.576171875 l 1,41,-1
 296 452.576171875 l 1,42,-1
 296 443.423828125 l 1,43,-1
 296 394 l 1,44,-1
 350 394 l 1,45,-1
 360 394 l 1,46,-1
 360 384 l 1,47,-1
 360 320 l 1,48,-1
 360 310 l 1,49,-1
 350 310 l 1,50,-1
 286 310 l 1,51,-1
 276 310 l 1,52,-1
 276 320 l 1,53,-1
 276 374 l 1,54,-1
 230.913412564 374 l 1,55,-1
 230.913412564 266 l 1,56,-1
 286 266 l 1,57,-1
 296 266 l 1,58,-1
 296 256 l 1,59,-1
 296 202 l 1,60,-1
 350 202 l 1,61,-1
 360 202 l 1,62,-1
 360 192.375976562 l 1,63,-1
 360 69.1875 l 1,64,-1
 360 59.5634765625 l 1,65,-1
 350 59.5634765625 l 1,66,-1
 296 59.5634765625 l 1,67,-1
 296 7.59375 l 1,68,-1
 296 -2.0302734375 l 1,69,-1
 286 -2.0302734375 l 1,70,-1
 230.913412564 -2.0302734375 l 1,71,-1
 230.913412564 -54 l 1,72,-1
 230.913412564 -64 l 1,73,-1
 218.791171477 -64 l 1,74,-1
 141.208828523 -64 l 1,75,-1
 129.086587436 -64 l 1,0,-1
84 374 m 1,76,-1
 84 266 l 1,77,-1
 129.086587436 266 l 1,78,-1
 129.086587436 374 l 1,79,-1
 84 374 l 1,76,-1
276 74 m 1,80,-1
 276 182 l 1,81,-1
 230.913412564 182 l 1,82,-1
 230.913412564 74 l 1,83,-1
 276 74 l 1,80,-1
EndSplineSet
Validated: 525313
EndChar

StartChar: percent
Encoding: 37 37 8
Width: 424
Flags: W
LayerCount: 2
Fore
SplineSet
0 374 m 1,0,-1
 0 383.275390625 l 1,1,-1
 0 442.637695312 l 1,2,-1
 0 451.913085938 l 1,3,-1
 10 451.913085938 l 1,4,-1
 64 451.913085938 l 1,5,-1
 64 502 l 1,6,-1
 64 512 l 1,7,-1
 74 512 l 1,8,-1
 141.208828523 512 l 1,9,-1
 153.33106961 512 l 1,10,-1
 153.33106961 502 l 1,11,-1
 153.33106961 451.913085938 l 1,12,-1
 218.791171477 451.913085938 l 1,13,-1
 230.913412564 451.913085938 l 1,14,-1
 230.913412564 442.637695312 l 1,15,-1
 230.913412564 383.275390625 l 1,16,-1
 230.913412564 374 l 1,17,-1
 218.791171477 374 l 1,18,-1
 153.33106961 374 l 1,19,-1
 153.33106961 320 l 1,20,-1
 153.33106961 310 l 1,21,-1
 141.208828523 310 l 1,22,-1
 74 310 l 1,23,-1
 64 310 l 1,24,-1
 64 320 l 1,25,-1
 64 374 l 1,26,-1
 10 374 l 1,27,-1
 0 374 l 1,0,-1
0 54 m 1,28,-1
 0 64 l 1,29,-1
 0 128 l 1,30,-1
 0 138 l 1,31,-1
 10 138 l 1,32,-1
 64 138 l 1,33,-1
 64 192 l 1,34,-1
 64 202 l 1,35,-1
 74 202 l 1,36,-1
 129.086587436 202 l 1,37,-1
 129.086587436 256 l 1,38,-1
 129.086587436 266 l 1,39,-1
 141.208828523 266 l 1,40,-1
 206.66893039 266 l 1,41,-1
 206.66893039 320 l 1,42,-1
 206.66893039 330 l 1,43,-1
 218.791171477 330 l 1,44,-1
 276 330 l 1,45,-1
 276 384 l 1,46,-1
 276 394 l 1,47,-1
 286 394 l 1,48,-1
 350 394 l 1,49,-1
 360 394 l 1,50,-1
 360 384 l 1,51,-1
 360 320 l 1,52,-1
 360 310 l 1,53,-1
 350 310 l 1,54,-1
 296 310 l 1,55,-1
 296 256 l 1,56,-1
 296 246 l 1,57,-1
 286 246 l 1,58,-1
 230.913412564 246 l 1,59,-1
 230.913412564 192 l 1,60,-1
 230.913412564 182 l 1,61,-1
 218.791171477 182 l 1,62,-1
 153.33106961 182 l 1,63,-1
 153.637342908 128 l 1,64,-1
 153.637342908 118 l 1,65,-1
 141.393177738 118 l 1,66,-1
 84 118 l 1,67,-1
 84 64 l 1,68,-1
 84 54 l 1,69,-1
 74 54 l 1,70,-1
 10 54 l 1,71,-1
 0 54 l 1,28,-1
129.149012567 0 m 1,72,-1
 129.149012567 9.32421875 l 1,73,-1
 129.149012567 69 l 1,74,-1
 129.149012567 78.32421875 l 1,75,-1
 141.393177738 78.32421875 l 1,76,-1
 207.511669659 78.32421875 l 1,77,-1
 207.511669659 128.67578125 l 1,78,-1
 207.511669659 138 l 1,79,-1
 219.755834829 138 l 1,80,-1
 286 138 l 1,81,-1
 296 138 l 1,82,-1
 296 128.67578125 l 1,83,-1
 296 78.32421875 l 1,84,-1
 350 78.32421875 l 1,85,-1
 360 78.32421875 l 1,86,-1
 360 69 l 1,87,-1
 360 9.32421875 l 1,88,-1
 360 0 l 1,89,-1
 350 0 l 1,90,-1
 296 0 l 1,91,-1
 296 -54 l 1,92,-1
 296 -64 l 1,93,-1
 286 -64 l 1,94,-1
 219.755834829 -64 l 1,95,-1
 207.511669659 -64 l 1,96,-1
 207.511669659 -54 l 1,97,-1
 207.511669659 0 l 1,98,-1
 141.393177738 0 l 1,99,-1
 129.149012567 0 l 1,72,-1
129.086587436 394 m 1,100,-1
 129.086587436 448 l 1,101,-1
 84 448 l 1,102,-1
 84 394 l 1,103,-1
 129.086587436 394 l 1,100,-1
276 0 m 1,104,-1
 276 44 l 1,105,-1
 232 44 l 1,106,-1
 232 0 l 1,107,-1
 276 0 l 1,104,-1
EndSplineSet
Validated: 525313
EndChar

StartChar: ampersand
Encoding: 38 38 9
Width: 384
Flags: W
LayerCount: 2
Fore
SplineSet
54 320 m 1,0,-1
 54 384 l 1,1,-1
 54 394 l 1,2,-1
 64 394 l 1,3,-1
 118 394 l 1,4,-1
 118 448 l 1,5,-1
 118 458 l 1,6,-1
 128 458 l 1,7,-1
 192 458 l 1,8,-1
 202 458 l 1,9,-1
 202 448 l 1,10,-1
 202 394 l 1,11,-1
 256 394 l 1,12,-1
 266 394 l 1,13,-1
 266 384 l 1,14,-1
 266 320 l 1,15,-1
 266 310 l 1,16,-1
 256 310 l 1,17,-1
 202 310 l 1,18,-1
 202 256 l 1,19,-1
 202 246 l 1,20,-1
 192 246 l 1,21,-1
 138 246 l 1,22,-1
 138 202 l 1,23,-1
 192 202 l 1,24,-1
 202 202 l 1,25,-1
 202 192 l 1,26,-1
 202 138 l 1,27,-1
 246 138 l 1,28,-1
 246 192 l 1,29,-1
 246 202 l 1,30,-1
 256 202 l 1,31,-1
 320 202 l 1,32,-1
 330 202 l 1,33,-1
 330 192 l 1,34,-1
 330 128 l 1,35,-1
 330 118 l 1,36,-1
 320 118 l 1,37,-1
 266 118 l 1,38,-1
 266 74 l 1,39,-1
 320 74 l 1,40,-1
 330 74 l 1,41,-1
 330 64 l 1,42,-1
 330 0 l 1,43,-1
 330 -10 l 1,44,-1
 320 -10 l 1,45,-1
 256 -10 l 1,46,-1
 246 -10 l 1,47,-1
 246 0 l 1,48,-1
 246 54 l 1,49,-1
 202 54 l 1,50,-1
 202 0 l 1,51,-1
 202 -10 l 1,52,-1
 192 -10 l 1,53,-1
 64 -10 l 1,54,-1
 54 -10 l 1,55,-1
 54 0 l 1,56,-1
 54 54 l 1,57,-1
 0 54 l 1,58,-1
 -10 54 l 1,59,-1
 -10 64 l 1,60,-1
 -10 192 l 1,61,-1
 -10 202 l 1,62,-1
 0 202 l 1,63,-1
 54 202 l 1,64,-1
 54 256 l 1,65,-1
 54 266 l 1,66,-1
 64 266 l 1,67,-1
 118 266 l 1,68,-1
 118 310 l 1,69,-1
 64 310 l 1,70,-1
 54 310 l 1,71,-1
 54 320 l 1,0,-1
182 374 m 1,72,-1
 138 374 l 1,73,-1
 138 330 l 1,74,-1
 182 330 l 1,75,-1
 182 374 l 1,72,-1
118 182 m 1,76,-1
 74 182 l 1,77,-1
 74 74 l 1,78,-1
 182 74 l 1,79,-1
 182 118 l 1,80,-1
 128 118 l 1,81,-1
 118 118 l 1,82,-1
 118 128 l 1,83,-1
 118 182 l 1,76,-1
EndSplineSet
Validated: 5
EndChar

StartChar: quotesingle
Encoding: 39 39 10
Width: 384
Flags: W
LayerCount: 2
Fore
SplineSet
118 320 m 1,0,-1
 118 448 l 1,1,-1
 118 458 l 1,2,-1
 128 458 l 1,3,-1
 192 458 l 1,4,-1
 202 458 l 1,5,-1
 202 448 l 1,6,-1
 202 320 l 1,7,-1
 202 310 l 1,8,-1
 192 310 l 1,9,-1
 128 310 l 1,10,-1
 118 310 l 1,11,-1
 118 320 l 1,0,-1
EndSplineSet
Validated: 1
EndChar

StartChar: parenleft
Encoding: 40 40 11
Width: 384
Flags: W
LayerCount: 2
Fore
SplineSet
118 0 m 1,0,-1
 118 448 l 1,1,-1
 118 458 l 1,2,-1
 128 458 l 1,3,-1
 182 458 l 1,4,-1
 182 512 l 1,5,-1
 182 522 l 1,6,-1
 192 522 l 1,7,-1
 256 522 l 1,8,-1
 266 522 l 1,9,-1
 266 512 l 1,10,-1
 266 448 l 1,11,-1
 266 438 l 1,12,-1
 256 438 l 1,13,-1
 202 438 l 1,14,-1
 202 10 l 1,15,-1
 256 10 l 1,16,-1
 266 10 l 1,17,-1
 266 0 l 1,18,-1
 266 -64 l 1,19,-1
 266 -74 l 1,20,-1
 256 -74 l 1,21,-1
 192 -74 l 1,22,-1
 182 -74 l 1,23,-1
 182 -64 l 1,24,-1
 182 -10 l 1,25,-1
 128 -10 l 1,26,-1
 118 -10 l 1,27,-1
 118 0 l 1,0,-1
EndSplineSet
Validated: 5
EndChar

StartChar: parenright
Encoding: 41 41 12
Width: 384
Flags: W
LayerCount: 2
Fore
SplineSet
54 448 m 1,0,-1
 54 512 l 1,1,-1
 54 522 l 1,2,-1
 64 522 l 1,3,-1
 128 522 l 1,4,-1
 138 522 l 1,5,-1
 138 512 l 1,6,-1
 138 458 l 1,7,-1
 192 458 l 1,8,-1
 202 458 l 1,9,-1
 202 448 l 1,10,-1
 202 0 l 1,11,-1
 202 -10 l 1,12,-1
 192 -10 l 1,13,-1
 138 -10 l 1,14,-1
 138 -64 l 1,15,-1
 138 -74 l 1,16,-1
 128 -74 l 1,17,-1
 64 -74 l 1,18,-1
 54 -74 l 1,19,-1
 54 -64 l 1,20,-1
 54 0 l 1,21,-1
 54 10 l 1,22,-1
 64 10 l 1,23,-1
 118 10 l 1,24,-1
 118 438 l 1,25,-1
 64 438 l 1,26,-1
 54 438 l 1,27,-1
 54 448 l 1,0,-1
EndSplineSet
Validated: 5
EndChar

StartChar: asterisk
Encoding: 42 42 13
Width: 384
Flags: W
LayerCount: 2
Fore
SplineSet
118 64 m 1,0,-1
 118 182 l 1,1,-1
 74 182 l 1,2,-1
 74 128 l 1,3,-1
 74 118 l 1,4,-1
 64 118 l 1,5,-1
 0 118 l 1,6,-1
 -10 118 l 1,7,-1
 -10 128 l 1,8,-1
 -10 192 l 1,9,-1
 -10 202 l 1,10,-1
 0 202 l 1,11,-1
 54 202 l 1,12,-1
 54 246 l 1,13,-1
 0 246 l 1,14,-1
 -10 246 l 1,15,-1
 -10 256 l 1,16,-1
 -10 320 l 1,17,-1
 -10 330 l 1,18,-1
 0 330 l 1,19,-1
 64 330 l 1,20,-1
 74 330 l 1,21,-1
 74 320 l 1,22,-1
 74 266 l 1,23,-1
 118 266 l 1,24,-1
 118 384 l 1,25,-1
 118 394 l 1,26,-1
 128 394 l 1,27,-1
 192 394 l 1,28,-1
 202 394 l 1,29,-1
 202 384 l 1,30,-1
 202 266 l 1,31,-1
 246 266 l 1,32,-1
 246 320 l 1,33,-1
 246 330 l 1,34,-1
 256 330 l 1,35,-1
 320 330 l 1,36,-1
 330 330 l 1,37,-1
 330 320 l 1,38,-1
 330 256 l 1,39,-1
 330 246 l 1,40,-1
 320 246 l 1,41,-1
 266 246 l 1,42,-1
 266 202 l 1,43,-1
 320 202 l 1,44,-1
 330 202 l 1,45,-1
 330 192 l 1,46,-1
 330 128 l 1,47,-1
 330 118 l 1,48,-1
 320 118 l 1,49,-1
 256 118 l 1,50,-1
 246 118 l 1,51,-1
 246 128 l 1,52,-1
 246 182 l 1,53,-1
 202 182 l 1,54,-1
 202 64 l 1,55,-1
 202 54 l 1,56,-1
 192 54 l 1,57,-1
 128 54 l 1,58,-1
 118 54 l 1,59,-1
 118 64 l 1,0,-1
EndSplineSet
Validated: 5
EndChar

StartChar: plus
Encoding: 43 43 14
Width: 384
Flags: W
LayerCount: 2
Fore
SplineSet
118 64 m 1,0,-1
 118 182 l 1,1,-1
 0 182 l 1,2,-1
 -10 182 l 1,3,-1
 -10 192 l 1,4,-1
 -10 256 l 1,5,-1
 -10 266 l 1,6,-1
 0 266 l 1,7,-1
 118 266 l 1,8,-1
 118 384 l 1,9,-1
 118 394 l 1,10,-1
 128 394 l 1,11,-1
 192 394 l 1,12,-1
 202 394 l 1,13,-1
 202 384 l 1,14,-1
 202 266 l 1,15,-1
 320 266 l 1,16,-1
 330 266 l 1,17,-1
 330 256 l 1,18,-1
 330 192 l 1,19,-1
 330 182 l 1,20,-1
 320 182 l 1,21,-1
 202 182 l 1,22,-1
 202 64 l 1,23,-1
 202 54 l 1,24,-1
 192 54 l 1,25,-1
 128 54 l 1,26,-1
 118 54 l 1,27,-1
 118 64 l 1,0,-1
EndSplineSet
Validated: 1
EndChar

StartChar: comma
Encoding: 44 44 15
Width: 384
Flags: W
LayerCount: 2
Fore
SplineSet
118 -64 m 1,0,-1
 118 64 l 1,1,-1
 118 74 l 1,2,-1
 128 74 l 1,3,-1
 192 74 l 1,4,-1
 202 74 l 1,5,-1
 202 64 l 1,6,-1
 202 -64 l 1,7,-1
 202 -74 l 1,8,-1
 192 -74 l 1,9,-1
 128 -74 l 1,10,-1
 118 -74 l 1,11,-1
 118 -64 l 1,0,-1
EndSplineSet
Validated: 1
EndChar

StartChar: hyphen
Encoding: 45 45 16
Width: 384
Flags: W
LayerCount: 2
Fore
SplineSet
-10 192 m 1,0,-1
 -10 256 l 1,1,-1
 -10 266 l 1,2,-1
 0 266 l 1,3,-1
 320 266 l 1,4,-1
 330 266 l 1,5,-1
 330 256 l 1,6,-1
 330 192 l 1,7,-1
 330 182 l 1,8,-1
 320 182 l 1,9,-1
 0 182 l 1,10,-1
 -10 182 l 1,11,-1
 -10 192 l 1,0,-1
EndSplineSet
Validated: 1
EndChar

StartChar: period
Encoding: 46 46 17
Width: 384
Flags: W
LayerCount: 2
Fore
SplineSet
118 0 m 1,0,-1
 118 64 l 1,1,-1
 118 74 l 1,2,-1
 128 74 l 1,3,-1
 192 74 l 1,4,-1
 202 74 l 1,5,-1
 202 64 l 1,6,-1
 202 0 l 1,7,-1
 202 -10 l 1,8,-1
 192 -10 l 1,9,-1
 128 -10 l 1,10,-1
 118 -10 l 1,11,-1
 118 0 l 1,0,-1
EndSplineSet
Validated: 1
EndChar

StartChar: slash
Encoding: 47 47 18
Width: 384
Flags: W
LayerCount: 2
Fore
SplineSet
-10 64 m 1,0,-1
 -10 128 l 1,1,-1
 -10 138 l 1,2,-1
 0 138 l 1,3,-1
 54 138 l 1,4,-1
 54 192 l 1,5,-1
 54 202 l 1,6,-1
 64 202 l 1,7,-1
 118 202 l 1,8,-1
 118 256 l 1,9,-1
 118 266 l 1,10,-1
 128 266 l 1,11,-1
 182 266 l 1,12,-1
 182 320 l 1,13,-1
 182 330 l 1,14,-1
 192 330 l 1,15,-1
 246 330 l 1,16,-1
 246 384 l 1,17,-1
 246 394 l 1,18,-1
 256 394 l 1,19,-1
 320 394 l 1,20,-1
 330 394 l 1,21,-1
 330 384 l 1,22,-1
 330 320 l 1,23,-1
 330 310 l 1,24,-1
 320 310 l 1,25,-1
 266 310 l 1,26,-1
 266 256 l 1,27,-1
 266 246 l 1,28,-1
 256 246 l 1,29,-1
 202 246 l 1,30,-1
 202 192 l 1,31,-1
 202 182 l 1,32,-1
 192 182 l 1,33,-1
 138 182 l 1,34,-1
 138 128 l 1,35,-1
 138 118 l 1,36,-1
 128 118 l 1,37,-1
 74 118 l 1,38,-1
 74 64 l 1,39,-1
 74 54 l 1,40,-1
 64 54 l 1,41,-1
 0 54 l 1,42,-1
 -10 54 l 1,43,-1
 -10 64 l 1,0,-1
EndSplineSet
Validated: 5
EndChar

StartChar: zero
Encoding: 48 48 19
Width: 424
Flags: W
LayerCount: 2
Fore
SplineSet
0 64 m 1,0,-1
 0 73.412109375 l 1,1,-1
 0 374.587890625 l 1,2,-1
 0 384 l 1,3,-1
 10 384 l 1,4,-1
 64 384 l 1,5,-1
 64 438 l 1,6,-1
 64 448 l 1,7,-1
 74 448 l 1,8,-1
 286 448 l 1,9,-1
 296 448 l 1,10,-1
 296 438 l 1,11,-1
 296 384 l 1,12,-1
 350 384 l 1,13,-1
 360 384 l 1,14,-1
 360 374.587890625 l 1,15,-1
 360 73.412109375 l 1,16,-1
 360 64 l 1,17,-1
 350 64 l 1,18,-1
 296 64 l 1,19,-1
 296 10 l 1,20,-1
 296 0 l 1,21,-1
 286 0 l 1,22,-1
 74 0 l 1,23,-1
 64 0 l 1,24,-1
 64 10 l 1,25,-1
 64 64 l 1,26,-1
 10 64 l 1,27,-1
 0 64 l 1,0,-1
129.086587436 182 m 1,28,-1
 129.086587436 192 l 1,29,-1
 129.086587436 256 l 1,30,-1
 129.086587436 266 l 1,31,-1
 141.208828523 266 l 1,32,-1
 218.791171477 266 l 1,33,-1
 230.913412564 266 l 1,34,-1
 230.913412564 256 l 1,35,-1
 230.913412564 192 l 1,36,-1
 230.913412564 182 l 1,37,-1
 218.791171477 182 l 1,38,-1
 141.208828523 182 l 1,39,-1
 129.086587436 182 l 1,28,-1
276 64 m 1,40,-1
 276 384 l 1,41,-1
 84 384 l 1,42,-1
 84 64 l 1,43,-1
 276 64 l 1,40,-1
EndSplineSet
Validated: 524289
EndChar

StartChar: one
Encoding: 49 49 20
Width: 404
Flags: W
LayerCount: 2
Fore
SplineSet
128 0 m 1,0,-1
 128 10 l 1,1,-1
 128 384 l 1,2,-1
 74 384 l 1,3,-1
 64 384 l 1,4,-1
 64 391.296875 l 1,5,-1
 64 438 l 1,6,-1
 64 448 l 1,7,-1
 74 448 l 1,8,-1
 202 448 l 1,9,-1
 212 448 l 1,10,-1
 212 438 l 1,11,-1
 212 10 l 1,12,-1
 212 0 l 1,13,-1
 202 0 l 1,14,-1
 138 0 l 1,15,-1
 128 0 l 1,0,-1
EndSplineSet
Validated: 524289
EndChar

StartChar: two
Encoding: 50 50 21
Width: 424
Flags: W
LayerCount: 2
Fore
SplineSet
0 384 m 1,0,-1
 0 391.296875 l 1,1,-1
 0 438 l 1,2,-1
 0 448 l 1,3,-1
 10 448 l 1,4,-1
 286 448 l 1,5,-1
 296 448 l 1,6,-1
 296 438 l 1,7,-1
 296 394 l 1,8,-1
 350 394 l 1,9,-1
 360 394 l 1,10,-1
 360 384 l 1,11,-1
 360 256 l 1,12,-1
 360 246 l 1,13,-1
 350 246 l 1,14,-1
 296 246 l 1,15,-1
 296 192 l 1,16,-1
 296 182 l 1,17,-1
 286 182 l 1,18,-1
 84 182 l 1,19,-1
 84 64 l 1,20,-1
 350 64 l 1,21,-1
 360 64 l 1,22,-1
 360 56.703125 l 1,23,-1
 360 10 l 1,24,-1
 360 0 l 1,25,-1
 350 0 l 1,26,-1
 10 0 l 1,27,-1
 0 0 l 1,28,-1
 0 10 l 1,29,-1
 0 192.495117188 l 1,30,-1
 0 202 l 1,31,-1
 10 202 l 1,32,-1
 64 202 l 1,33,-1
 64 256 l 1,34,-1
 64 266 l 1,35,-1
 74 266 l 1,36,-1
 276 266 l 1,37,-1
 276 384 l 1,38,-1
 10 384 l 1,39,-1
 0 384 l 1,0,-1
EndSplineSet
Validated: 524289
EndChar

StartChar: three
Encoding: 51 51 22
Width: 424
Flags: W
LayerCount: 2
Fore
SplineSet
0 384 m 1,0,-1
 0 391.296875 l 1,1,-1
 0 438 l 1,2,-1
 0 448 l 1,3,-1
 10 448 l 1,4,-1
 286 448 l 1,5,-1
 296 448 l 1,6,-1
 296 438 l 1,7,-1
 296 394 l 1,8,-1
 350 394 l 1,9,-1
 360 394 l 1,10,-1
 360 384 l 1,11,-1
 360 256 l 1,12,-1
 360 246 l 1,13,-1
 350 246 l 1,14,-1
 296 246 l 1,15,-1
 296 202 l 1,16,-1
 350 202 l 1,17,-1
 360 202 l 1,18,-1
 360 192.67578125 l 1,19,-1
 360 73.32421875 l 1,20,-1
 360 64 l 1,21,-1
 350 64 l 1,22,-1
 296 64 l 1,23,-1
 296 10 l 1,24,-1
 296 0 l 1,25,-1
 286 0 l 1,26,-1
 10 0 l 1,27,-1
 0 0 l 1,28,-1
 0 10 l 1,29,-1
 0 56.703125 l 1,30,-1
 0 64 l 1,31,-1
 10 64 l 1,32,-1
 276 64 l 1,33,-1
 276 182 l 1,34,-1
 74 182 l 1,35,-1
 64 182 l 1,36,-1
 64 192 l 1,37,-1
 64 256 l 1,38,-1
 64 266 l 1,39,-1
 74 266 l 1,40,-1
 276 266 l 1,41,-1
 276 384 l 1,42,-1
 10 384 l 1,43,-1
 0 384 l 1,0,-1
EndSplineSet
Validated: 524289
EndChar

StartChar: four
Encoding: 52 52 23
Width: 424
Flags: W
LayerCount: 2
Fore
SplineSet
276 0 m 1,0,-1
 276 10 l 1,1,-1
 276 182 l 1,2,-1
 74 182 l 1,3,-1
 64 182 l 1,4,-1
 64 192 l 1,5,-1
 64 246 l 1,6,-1
 10 246 l 1,7,-1
 0 246 l 1,8,-1
 0 255.504882812 l 1,9,-1
 0 438 l 1,10,-1
 0 448 l 1,11,-1
 10 448 l 1,12,-1
 74 448 l 1,13,-1
 84 448 l 1,14,-1
 84 438 l 1,15,-1
 84 266 l 1,16,-1
 276 266 l 1,17,-1
 276 438 l 1,18,-1
 276 448 l 1,19,-1
 286 448 l 1,20,-1
 350 448 l 1,21,-1
 360 448 l 1,22,-1
 360 438 l 1,23,-1
 360 10 l 1,24,-1
 360 0 l 1,25,-1
 350 0 l 1,26,-1
 286 0 l 1,27,-1
 276 0 l 1,0,-1
EndSplineSet
Validated: 524289
EndChar

StartChar: five
Encoding: 53 53 24
Width: 424
Flags: W
LayerCount: 2
Fore
SplineSet
0 246 m 1,0,-1
 0 255.504882812 l 1,1,-1
 0 438 l 1,2,-1
 0 448 l 1,3,-1
 10 448 l 1,4,-1
 350 448 l 1,5,-1
 360 448 l 1,6,-1
 360 438 l 1,7,-1
 360 391.296875 l 1,8,-1
 360 384 l 1,9,-1
 350 384 l 1,10,-1
 84 384 l 1,11,-1
 84 330 l 1,12,-1
 286 330 l 1,13,-1
 296 330 l 1,14,-1
 296 320 l 1,15,-1
 296 266 l 1,16,-1
 350 266 l 1,17,-1
 360 266 l 1,18,-1
 360 256.471679688 l 1,19,-1
 360 73.5283203125 l 1,20,-1
 360 64 l 1,21,-1
 350 64 l 1,22,-1
 296 64 l 1,23,-1
 296 10 l 1,24,-1
 296 0 l 1,25,-1
 286 0 l 1,26,-1
 10 0 l 1,27,-1
 0 0 l 1,28,-1
 0 10 l 1,29,-1
 0 56.703125 l 1,30,-1
 0 64 l 1,31,-1
 10 64 l 1,32,-1
 276 64 l 1,33,-1
 276 246 l 1,34,-1
 10 246 l 1,35,-1
 0 246 l 1,0,-1
EndSplineSet
Validated: 524289
EndChar

StartChar: six
Encoding: 54 54 25
Width: 424
Flags: W
LayerCount: 2
Fore
SplineSet
0 64 m 1,0,-1
 0 73.412109375 l 1,1,-1
 0 374.587890625 l 1,2,-1
 0 384 l 1,3,-1
 10 384 l 1,4,-1
 64 384 l 1,5,-1
 64 438 l 1,6,-1
 64 448 l 1,7,-1
 74 448 l 1,8,-1
 286 448 l 1,9,-1
 296 448 l 1,10,-1
 296 438 l 1,11,-1
 296 391.296875 l 1,12,-1
 296 384 l 1,13,-1
 286 384 l 1,14,-1
 84 384 l 1,15,-1
 84 330 l 1,16,-1
 286 330 l 1,17,-1
 296 330 l 1,18,-1
 296 320 l 1,19,-1
 296 266 l 1,20,-1
 350 266 l 1,21,-1
 360 266 l 1,22,-1
 360 256.471679688 l 1,23,-1
 360 73.5283203125 l 1,24,-1
 360 64 l 1,25,-1
 350 64 l 1,26,-1
 296 64 l 1,27,-1
 296 10 l 1,28,-1
 296 0 l 1,29,-1
 286 0 l 1,30,-1
 74 0 l 1,31,-1
 64 0 l 1,32,-1
 64 10 l 1,33,-1
 64 64 l 1,34,-1
 10 64 l 1,35,-1
 0 64 l 1,0,-1
276 64 m 1,36,-1
 276 246 l 1,37,-1
 84 246 l 1,38,-1
 84 64 l 1,39,-1
 276 64 l 1,36,-1
EndSplineSet
Validated: 524289
EndChar

StartChar: seven
Encoding: 55 55 26
Width: 424
Flags: W
LayerCount: 2
Fore
SplineSet
64 0 m 1,0,-1
 64 10 l 1,1,-1
 64 56.703125 l 1,2,-1
 64 64 l 1,3,-1
 74 64 l 1,4,-1
 129.086587436 64 l 1,5,-1
 129.086587436 191.21875 l 1,6,-1
 129.086587436 202 l 1,7,-1
 141.208828523 202 l 1,8,-1
 206.66893039 202 l 1,9,-1
 206.66893039 320 l 1,10,-1
 206.66893039 330 l 1,11,-1
 218.791171477 330 l 1,12,-1
 276 330 l 1,13,-1
 276 384 l 1,14,-1
 10 384 l 1,15,-1
 0 384 l 1,16,-1
 0 391.296875 l 1,17,-1
 0 438 l 1,18,-1
 0 448 l 1,19,-1
 10 448 l 1,20,-1
 350 448 l 1,21,-1
 360 448 l 1,22,-1
 360 438 l 1,23,-1
 360 319.275390625 l 1,24,-1
 360 310 l 1,25,-1
 350 310 l 1,26,-1
 296 310 l 1,27,-1
 296 192 l 1,28,-1
 296 182 l 1,29,-1
 286 182 l 1,30,-1
 230.913412564 182 l 1,31,-1
 230.913412564 73.21875 l 1,32,-1
 230.913412564 64 l 1,33,-1
 218.791171477 64 l 1,34,-1
 153.33106961 64 l 1,35,-1
 153.33106961 10 l 1,36,-1
 153.33106961 0 l 1,37,-1
 141.208828523 0 l 1,38,-1
 74 0 l 1,39,-1
 64 0 l 1,0,-1
EndSplineSet
Validated: 524289
EndChar

StartChar: eight
Encoding: 56 56 27
Width: 424
Flags: W
LayerCount: 2
Fore
SplineSet
0 246 m 1,0,-1
 0 256 l 1,1,-1
 0 384 l 1,2,-1
 0 394 l 1,3,-1
 10 394 l 1,4,-1
 64 394 l 1,5,-1
 64 438 l 1,6,-1
 64 448 l 1,7,-1
 74 448 l 1,8,-1
 286 448 l 1,9,-1
 296 448 l 1,10,-1
 296 438 l 1,11,-1
 296 394 l 1,12,-1
 350 394 l 1,13,-1
 360 394 l 1,14,-1
 360 384 l 1,15,-1
 360 256 l 1,16,-1
 360 246 l 1,17,-1
 350 246 l 1,18,-1
 296 246 l 1,19,-1
 296 202 l 1,20,-1
 350 202 l 1,21,-1
 360 202 l 1,22,-1
 360 192.67578125 l 1,23,-1
 360 73.32421875 l 1,24,-1
 360 64 l 1,25,-1
 350 64 l 1,26,-1
 296 64 l 1,27,-1
 296 10 l 1,28,-1
 296 0 l 1,29,-1
 286 0 l 1,30,-1
 74 0 l 1,31,-1
 64 0 l 1,32,-1
 64 10 l 1,33,-1
 64 64 l 1,34,-1
 10 64 l 1,35,-1
 0 64 l 1,36,-1
 0 73.32421875 l 1,37,-1
 0 192.67578125 l 1,38,-1
 0 202 l 1,39,-1
 10 202 l 1,40,-1
 64 202 l 1,41,-1
 64 246 l 1,42,-1
 10 246 l 1,43,-1
 0 246 l 1,0,-1
276 266 m 1,44,-1
 276 384 l 1,45,-1
 84 384 l 1,46,-1
 84 266 l 1,47,-1
 276 266 l 1,44,-1
276 64 m 1,48,-1
 276 182 l 1,49,-1
 84 182 l 1,50,-1
 84 64 l 1,51,-1
 276 64 l 1,48,-1
EndSplineSet
Validated: 524289
EndChar

StartChar: nine
Encoding: 57 57 28
Width: 424
Flags: W
LayerCount: 2
Fore
SplineSet
0 246 m 1,0,-1
 0 256 l 1,1,-1
 0 384 l 1,2,-1
 0 394 l 1,3,-1
 10 394 l 1,4,-1
 64 394 l 1,5,-1
 64 438 l 1,6,-1
 64 448 l 1,7,-1
 74 448 l 1,8,-1
 286 448 l 1,9,-1
 296 448 l 1,10,-1
 296 438 l 1,11,-1
 296 394 l 1,12,-1
 350 394 l 1,13,-1
 360 394 l 1,14,-1
 360 384.293945312 l 1,15,-1
 360 73.7060546875 l 1,16,-1
 360 64 l 1,17,-1
 350 64 l 1,18,-1
 296 64 l 1,19,-1
 296 10 l 1,20,-1
 296 0 l 1,21,-1
 286 0 l 1,22,-1
 74 0 l 1,23,-1
 64 0 l 1,24,-1
 64 10 l 1,25,-1
 64 56.703125 l 1,26,-1
 64 64 l 1,27,-1
 74 64 l 1,28,-1
 276 64 l 1,29,-1
 276 182 l 1,30,-1
 74 182 l 1,31,-1
 64 182 l 1,32,-1
 64 192 l 1,33,-1
 64 246 l 1,34,-1
 10 246 l 1,35,-1
 0 246 l 1,0,-1
276 266 m 1,36,-1
 276 384 l 1,37,-1
 84 384 l 1,38,-1
 84 266 l 1,39,-1
 276 266 l 1,36,-1
EndSplineSet
Validated: 524289
EndChar

StartChar: colon
Encoding: 58 58 29
Width: 384
Flags: W
LayerCount: 2
Fore
SplineSet
118 0 m 1,0,-1
 118 64 l 1,1,-1
 118 74 l 1,2,-1
 128 74 l 1,3,-1
 192 74 l 1,4,-1
 202 74 l 1,5,-1
 202 64 l 1,6,-1
 202 0 l 1,7,-1
 202 -10 l 1,8,-1
 192 -10 l 1,9,-1
 128 -10 l 1,10,-1
 118 -10 l 1,11,-1
 118 0 l 1,0,-1
118 256 m 1,12,-1
 118 320 l 1,13,-1
 118 330 l 1,14,-1
 128 330 l 1,15,-1
 192 330 l 1,16,-1
 202 330 l 1,17,-1
 202 320 l 1,18,-1
 202 256 l 1,19,-1
 202 246 l 1,20,-1
 192 246 l 1,21,-1
 128 246 l 1,22,-1
 118 246 l 1,23,-1
 118 256 l 1,12,-1
EndSplineSet
Validated: 1
EndChar

StartChar: semicolon
Encoding: 59 59 30
Width: 384
Flags: W
LayerCount: 2
Fore
SplineSet
118 -64 m 1,0,-1
 118 64 l 1,1,-1
 118 74 l 1,2,-1
 128 74 l 1,3,-1
 192 74 l 1,4,-1
 202 74 l 1,5,-1
 202 64 l 1,6,-1
 202 -64 l 1,7,-1
 202 -74 l 1,8,-1
 192 -74 l 1,9,-1
 128 -74 l 1,10,-1
 118 -74 l 1,11,-1
 118 -64 l 1,0,-1
118 256 m 1,12,-1
 118 320 l 1,13,-1
 118 330 l 1,14,-1
 128 330 l 1,15,-1
 192 330 l 1,16,-1
 202 330 l 1,17,-1
 202 320 l 1,18,-1
 202 256 l 1,19,-1
 202 246 l 1,20,-1
 192 246 l 1,21,-1
 128 246 l 1,22,-1
 118 246 l 1,23,-1
 118 256 l 1,12,-1
EndSplineSet
Validated: 1
EndChar

StartChar: less
Encoding: 60 60 31
Width: 384
Flags: W
LayerCount: 2
Fore
SplineSet
54 192 m 1,0,-1
 54 256 l 1,1,-1
 54 266 l 1,2,-1
 64 266 l 1,3,-1
 118 266 l 1,4,-1
 118 320 l 1,5,-1
 118 330 l 1,6,-1
 128 330 l 1,7,-1
 182 330 l 1,8,-1
 182 384 l 1,9,-1
 182 394 l 1,10,-1
 192 394 l 1,11,-1
 256 394 l 1,12,-1
 266 394 l 1,13,-1
 266 384 l 1,14,-1
 266 320 l 1,15,-1
 266 310 l 1,16,-1
 256 310 l 1,17,-1
 202 310 l 1,18,-1
 202 256 l 1,19,-1
 202 246 l 1,20,-1
 192 246 l 1,21,-1
 138 246 l 1,22,-1
 138 202 l 1,23,-1
 192 202 l 1,24,-1
 202 202 l 1,25,-1
 202 192 l 1,26,-1
 202 138 l 1,27,-1
 256 138 l 1,28,-1
 266 138 l 1,29,-1
 266 128 l 1,30,-1
 266 64 l 1,31,-1
 266 54 l 1,32,-1
 256 54 l 1,33,-1
 192 54 l 1,34,-1
 182 54 l 1,35,-1
 182 64 l 1,36,-1
 182 118 l 1,37,-1
 128 118 l 1,38,-1
 118 118 l 1,39,-1
 118 128 l 1,40,-1
 118 182 l 1,41,-1
 64 182 l 1,42,-1
 54 182 l 1,43,-1
 54 192 l 1,0,-1
EndSplineSet
Validated: 5
EndChar

StartChar: equal
Encoding: 61 61 32
Width: 384
Flags: W
LayerCount: 2
Fore
SplineSet
-10 128 m 1,0,-1
 -10 192 l 1,1,-1
 -10 202 l 1,2,-1
 0 202 l 1,3,-1
 320 202 l 1,4,-1
 330 202 l 1,5,-1
 330 192 l 1,6,-1
 330 128 l 1,7,-1
 330 118 l 1,8,-1
 320 118 l 1,9,-1
 0 118 l 1,10,-1
 -10 118 l 1,11,-1
 -10 128 l 1,0,-1
-10 256 m 1,12,-1
 -10 320 l 1,13,-1
 -10 330 l 1,14,-1
 0 330 l 1,15,-1
 320 330 l 1,16,-1
 330 330 l 1,17,-1
 330 320 l 1,18,-1
 330 256 l 1,19,-1
 330 246 l 1,20,-1
 320 246 l 1,21,-1
 0 246 l 1,22,-1
 -10 246 l 1,23,-1
 -10 256 l 1,12,-1
EndSplineSet
Validated: 1
EndChar

StartChar: greater
Encoding: 62 62 33
Width: 384
Flags: W
LayerCount: 2
Fore
SplineSet
54 320 m 1,0,-1
 54 384 l 1,1,-1
 54 394 l 1,2,-1
 64 394 l 1,3,-1
 128 394 l 1,4,-1
 138 394 l 1,5,-1
 138 384 l 1,6,-1
 138 330 l 1,7,-1
 192 330 l 1,8,-1
 202 330 l 1,9,-1
 202 320 l 1,10,-1
 202 266 l 1,11,-1
 256 266 l 1,12,-1
 266 266 l 1,13,-1
 266 256 l 1,14,-1
 266 192 l 1,15,-1
 266 182 l 1,16,-1
 256 182 l 1,17,-1
 202 182 l 1,18,-1
 202 128 l 1,19,-1
 202 118 l 1,20,-1
 192 118 l 1,21,-1
 138 118 l 1,22,-1
 138 64 l 1,23,-1
 138 54 l 1,24,-1
 128 54 l 1,25,-1
 64 54 l 1,26,-1
 54 54 l 1,27,-1
 54 64 l 1,28,-1
 54 128 l 1,29,-1
 54 138 l 1,30,-1
 64 138 l 1,31,-1
 118 138 l 1,32,-1
 118 192 l 1,33,-1
 118 202 l 1,34,-1
 128 202 l 1,35,-1
 182 202 l 1,36,-1
 182 246 l 1,37,-1
 128 246 l 1,38,-1
 118 246 l 1,39,-1
 118 256 l 1,40,-1
 118 310 l 1,41,-1
 64 310 l 1,42,-1
 54 310 l 1,43,-1
 54 320 l 1,0,-1
EndSplineSet
Validated: 5
EndChar

StartChar: question
Encoding: 63 63 34
Width: 384
Flags: W
LayerCount: 2
Fore
SplineSet
-10 320 m 1,0,-1
 -10 384 l 1,1,-1
 -10 394 l 1,2,-1
 0 394 l 1,3,-1
 54 394 l 1,4,-1
 54 448 l 1,5,-1
 54 458 l 1,6,-1
 64 458 l 1,7,-1
 256 458 l 1,8,-1
 266 458 l 1,9,-1
 266 448 l 1,10,-1
 266 394 l 1,11,-1
 320 394 l 1,12,-1
 330 394 l 1,13,-1
 330 384 l 1,14,-1
 330 256 l 1,15,-1
 330 246 l 1,16,-1
 320 246 l 1,17,-1
 266 246 l 1,18,-1
 266 192 l 1,19,-1
 266 182 l 1,20,-1
 256 182 l 1,21,-1
 202 182 l 1,22,-1
 202 128 l 1,23,-1
 202 118 l 1,24,-1
 192 118 l 1,25,-1
 128 118 l 1,26,-1
 118 118 l 1,27,-1
 118 128 l 1,28,-1
 118 192 l 1,29,-1
 118 202 l 1,30,-1
 128 202 l 1,31,-1
 182 202 l 1,32,-1
 182 256 l 1,33,-1
 182 266 l 1,34,-1
 192 266 l 1,35,-1
 246 266 l 1,36,-1
 246 374 l 1,37,-1
 74 374 l 1,38,-1
 74 320 l 1,39,-1
 74 310 l 1,40,-1
 64 310 l 1,41,-1
 0 310 l 1,42,-1
 -10 310 l 1,43,-1
 -10 320 l 1,0,-1
118 0 m 1,44,-1
 118 64 l 1,45,-1
 118 74 l 1,46,-1
 128 74 l 1,47,-1
 192 74 l 1,48,-1
 202 74 l 1,49,-1
 202 64 l 1,50,-1
 202 0 l 1,51,-1
 202 -10 l 1,52,-1
 192 -10 l 1,53,-1
 128 -10 l 1,54,-1
 118 -10 l 1,55,-1
 118 0 l 1,44,-1
EndSplineSet
Validated: 5
EndChar

StartChar: at
Encoding: 64 64 35
Width: 384
Flags: W
LayerCount: 2
Fore
SplineSet
-10 64 m 1,0,-1
 -10 384 l 1,1,-1
 -10 394 l 1,2,-1
 0 394 l 1,3,-1
 54 394 l 1,4,-1
 54 448 l 1,5,-1
 54 458 l 1,6,-1
 64 458 l 1,7,-1
 256 458 l 1,8,-1
 266 458 l 1,9,-1
 266 448 l 1,10,-1
 266 394 l 1,11,-1
 320 394 l 1,12,-1
 330 394 l 1,13,-1
 330 384 l 1,14,-1
 330 128 l 1,15,-1
 330 118 l 1,16,-1
 320 118 l 1,17,-1
 74 118 l 1,18,-1
 74 74 l 1,19,-1
 256 74 l 1,20,-1
 266 74 l 1,21,-1
 266 64 l 1,22,-1
 266 0 l 1,23,-1
 266 -10 l 1,24,-1
 256 -10 l 1,25,-1
 64 -10 l 1,26,-1
 54 -10 l 1,27,-1
 54 0 l 1,28,-1
 54 54 l 1,29,-1
 0 54 l 1,30,-1
 -10 54 l 1,31,-1
 -10 64 l 1,0,-1
118 202 m 1,32,-1
 118 246 l 1,33,-1
 74 246 l 1,34,-1
 74 202 l 1,35,-1
 118 202 l 1,32,-1
246 374 m 1,36,-1
 74 374 l 1,37,-1
 74 330 l 1,38,-1
 192 330 l 1,39,-1
 202 330 l 1,40,-1
 202 320 l 1,41,-1
 202 202 l 1,42,-1
 246 202 l 1,43,-1
 246 374 l 1,36,-1
EndSplineSet
Validated: 5
EndChar

StartChar: A
Encoding: 65 65 36
Width: 424
Flags: W
LayerCount: 2
Fore
SplineSet
0 0 m 1,0,-1
 0 10 l 1,1,-1
 0 374.5078125 l 1,2,-1
 0 384 l 1,3,-1
 10 384 l 1,4,-1
 64 384 l 1,5,-1
 64 438 l 1,6,-1
 64 448 l 1,7,-1
 74 448 l 1,8,-1
 286 448 l 1,9,-1
 296 448 l 1,10,-1
 296 438 l 1,11,-1
 296 384 l 1,12,-1
 350 384 l 1,13,-1
 360 384 l 1,14,-1
 360 374.5078125 l 1,15,-1
 360 10 l 1,16,-1
 360 0 l 1,17,-1
 350 0 l 1,18,-1
 286 0 l 1,19,-1
 276 0 l 1,20,-1
 276 10 l 1,21,-1
 276 118 l 1,22,-1
 84 118 l 1,23,-1
 84 10 l 1,24,-1
 84 0 l 1,25,-1
 74 0 l 1,26,-1
 10 0 l 1,27,-1
 0 0 l 1,0,-1
276 202 m 1,28,-1
 276 384 l 1,29,-1
 84 384 l 1,30,-1
 84 202 l 1,31,-1
 276 202 l 1,28,-1
EndSplineSet
Validated: 524289
EndChar

StartChar: B
Encoding: 66 66 37
Width: 424
Flags: W
LayerCount: 2
Fore
SplineSet
0 0 m 1,0,-1
 0 10 l 1,1,-1
 0 438 l 1,2,-1
 0 448 l 1,3,-1
 10 448 l 1,4,-1
 286 448 l 1,5,-1
 296 448 l 1,6,-1
 296 438 l 1,7,-1
 296 394 l 1,8,-1
 350 394 l 1,9,-1
 360 394 l 1,10,-1
 360 384 l 1,11,-1
 360 256 l 1,12,-1
 360 246 l 1,13,-1
 350 246 l 1,14,-1
 296 246 l 1,15,-1
 296 202 l 1,16,-1
 350 202 l 1,17,-1
 360 202 l 1,18,-1
 360 192.67578125 l 1,19,-1
 360 73.32421875 l 1,20,-1
 360 64 l 1,21,-1
 350 64 l 1,22,-1
 296 64 l 1,23,-1
 296 10 l 1,24,-1
 296 0 l 1,25,-1
 286 0 l 1,26,-1
 10 0 l 1,27,-1
 0 0 l 1,0,-1
276 266 m 1,28,-1
 276 384 l 1,29,-1
 84 384 l 1,30,-1
 84 266 l 1,31,-1
 276 266 l 1,28,-1
276 64 m 1,32,-1
 276 182 l 1,33,-1
 84 182 l 1,34,-1
 84 64 l 1,35,-1
 276 64 l 1,32,-1
EndSplineSet
Validated: 524289
EndChar

StartChar: C
Encoding: 67 67 38
Width: 424
Flags: W
LayerCount: 2
Fore
SplineSet
0 64 m 1,0,-1
 0 73.4921875 l 1,1,-1
 0 377.249023438 l 1,2,-1
 0 386.741210938 l 1,3,-1
 10 386.741210938 l 1,4,-1
 64 386.741210938 l 1,5,-1
 64 438 l 1,6,-1
 64 448 l 1,7,-1
 74 448 l 1,8,-1
 286 448 l 1,9,-1
 296 448 l 1,10,-1
 296 438 l 1,11,-1
 296 398.594726562 l 1,12,-1
 350 398.594726562 l 1,13,-1
 360 398.594726562 l 1,14,-1
 360 391.296875 l 1,15,-1
 360 330 l 1,16,-1
 360 320 l 1,17,-1
 350 320 l 1,18,-1
 286 320 l 1,19,-1
 276 320 l 1,20,-1
 276 330 l 1,21,-1
 276 384 l 1,22,-1
 84 384 l 1,23,-1
 84 64 l 1,24,-1
 276 64 l 1,25,-1
 276 118 l 1,26,-1
 276 128 l 1,27,-1
 286 128 l 1,28,-1
 350 128 l 1,29,-1
 360 128 l 1,30,-1
 360 118 l 1,31,-1
 360 64 l 1,32,-1
 360 64 l 1,33,-1
 350 64 l 1,34,-1
 296 64 l 1,35,-1
 296 10 l 1,36,-1
 296 0 l 1,37,-1
 286 0 l 1,38,-1
 74 0 l 1,39,-1
 64 0 l 1,40,-1
 64 10 l 1,41,-1
 64 64 l 1,42,-1
 10 64 l 1,43,-1
 0 64 l 1,0,-1
EndSplineSet
Validated: 524293
EndChar

StartChar: D
Encoding: 68 68 39
Width: 424
Flags: W
LayerCount: 2
Fore
SplineSet
0 0 m 1,0,-1
 0 10 l 1,1,-1
 0 438 l 1,2,-1
 0 448 l 1,3,-1
 10 448 l 1,4,-1
 286 448 l 1,5,-1
 296 448 l 1,6,-1
 296 438 l 1,7,-1
 296 384 l 1,8,-1
 350 384 l 1,9,-1
 360 384 l 1,10,-1
 360 374.587890625 l 1,11,-1
 360 73.412109375 l 1,12,-1
 360 64 l 1,13,-1
 350 64 l 1,14,-1
 296 64 l 1,15,-1
 296 10 l 1,16,-1
 296 0 l 1,17,-1
 286 0 l 1,18,-1
 10 0 l 1,19,-1
 0 0 l 1,0,-1
276 64 m 1,20,-1
 276 384 l 1,21,-1
 84 384 l 1,22,-1
 84 64 l 1,23,-1
 276 64 l 1,20,-1
EndSplineSet
Validated: 524289
EndChar

StartChar: E
Encoding: 69 69 40
Width: 424
Flags: W
LayerCount: 2
Fore
SplineSet
0 0 m 1,0,-1
 0 10 l 1,1,-1
 0 438 l 1,2,-1
 0 448 l 1,3,-1
 10 448 l 1,4,-1
 350 448 l 1,5,-1
 360 448 l 1,6,-1
 360 438 l 1,7,-1
 360 391.296875 l 1,8,-1
 360 384 l 1,9,-1
 350 384 l 1,10,-1
 84 384 l 1,11,-1
 84 266 l 1,12,-1
 286 266 l 1,13,-1
 296 266 l 1,14,-1
 296 256 l 1,15,-1
 296 192 l 1,16,-1
 296 182 l 1,17,-1
 286 182 l 1,18,-1
 84 182 l 1,19,-1
 84 64 l 1,20,-1
 350 64 l 1,21,-1
 360 64 l 1,22,-1
 360 56.703125 l 1,23,-1
 360 10 l 1,24,-1
 360 0 l 1,25,-1
 350 0 l 1,26,-1
 10 0 l 1,27,-1
 0 0 l 1,0,-1
EndSplineSet
Validated: 524289
EndChar

StartChar: F
Encoding: 70 70 41
Width: 424
Flags: W
LayerCount: 2
Fore
SplineSet
0 0 m 1,0,-1
 0 10 l 1,1,-1
 0 438 l 1,2,-1
 0 448 l 1,3,-1
 10 448 l 1,4,-1
 350 448 l 1,5,-1
 360 448 l 1,6,-1
 360 438 l 1,7,-1
 360 391.296875 l 1,8,-1
 360 384 l 1,9,-1
 350 384 l 1,10,-1
 84 384 l 1,11,-1
 84 266 l 1,12,-1
 286 266 l 1,13,-1
 296 266 l 1,14,-1
 296 256 l 1,15,-1
 296 192 l 1,16,-1
 296 182 l 1,17,-1
 286 182 l 1,18,-1
 84 182 l 1,19,-1
 84 10 l 1,20,-1
 84 0 l 1,21,-1
 74 0 l 1,22,-1
 10 0 l 1,23,-1
 0 0 l 1,0,-1
EndSplineSet
Validated: 524289
EndChar

StartChar: G
Encoding: 71 71 42
Width: 424
Flags: W
LayerCount: 2
Fore
SplineSet
0 64 m 1,0,-1
 0 73.4921875 l 1,1,-1
 0 377.249023438 l 1,2,-1
 0 386.741210938 l 1,3,-1
 10 386.741210938 l 1,4,-1
 64 386.741210938 l 1,5,-1
 64 438 l 1,6,-1
 64 448 l 1,7,-1
 74 448 l 1,8,-1
 286 448 l 1,9,-1
 296 448 l 1,10,-1
 296 438 l 1,11,-1
 296 398.594726562 l 1,12,-1
 350 398.594726562 l 1,13,-1
 360 398.594726562 l 1,14,-1
 360 391.296875 l 1,15,-1
 360 330 l 1,16,-1
 360 320 l 1,17,-1
 350 320 l 1,18,-1
 286 320 l 1,19,-1
 276 320 l 1,20,-1
 276 330 l 1,21,-1
 276 384 l 1,22,-1
 84 384 l 1,23,-1
 84 64 l 1,24,-1
 276 64 l 1,25,-1
 276 182 l 1,26,-1
 218.791171477 182 l 1,27,-1
 206.66893039 182 l 1,28,-1
 206.66893039 192 l 1,29,-1
 206.66893039 256 l 1,30,-1
 206.66893039 266 l 1,31,-1
 218.791171477 266 l 1,32,-1
 350 266 l 1,33,-1
 360 266 l 1,34,-1
 360 256.375976562 l 1,35,-1
 360 10 l 1,36,-1
 360 0 l 1,37,-1
 350 0 l 1,38,-1
 74 0 l 1,39,-1
 64 0 l 1,40,-1
 64 10 l 1,41,-1
 64 64 l 1,42,-1
 10 64 l 1,43,-1
 0 64 l 1,0,-1
EndSplineSet
Validated: 524289
EndChar

StartChar: H
Encoding: 72 72 43
Width: 424
Flags: W
LayerCount: 2
Fore
SplineSet
0 0 m 1,0,-1
 0 10 l 1,1,-1
 0 438 l 1,2,-1
 0 448 l 1,3,-1
 10 448 l 1,4,-1
 74 448 l 1,5,-1
 84 448 l 1,6,-1
 84 438 l 1,7,-1
 84 266 l 1,8,-1
 276 266 l 1,9,-1
 276 438 l 1,10,-1
 276 448 l 1,11,-1
 286 448 l 1,12,-1
 350 448 l 1,13,-1
 360 448 l 1,14,-1
 360 438 l 1,15,-1
 360 10 l 1,16,-1
 360 0 l 1,17,-1
 350 0 l 1,18,-1
 286 0 l 1,19,-1
 276 0 l 1,20,-1
 276 10 l 1,21,-1
 276 182 l 1,22,-1
 84 182 l 1,23,-1
 84 10 l 1,24,-1
 84 0 l 1,25,-1
 74 0 l 1,26,-1
 10 0 l 1,27,-1
 0 0 l 1,0,-1
EndSplineSet
Validated: 1
EndChar

StartChar: I
Encoding: 73 73 44
Width: 404
Flags: W
LayerCount: 2
Fore
SplineSet
64 0 m 1,0,-1
 64 10 l 1,1,-1
 64 56.703125 l 1,2,-1
 64 64 l 1,3,-1
 74 64 l 1,4,-1
 128 64 l 1,5,-1
 128 384 l 1,6,-1
 74 384 l 1,7,-1
 64 384 l 1,8,-1
 64 391.296875 l 1,9,-1
 64 438 l 1,10,-1
 64 448 l 1,11,-1
 74 448 l 1,12,-1
 266 448 l 1,13,-1
 276 448 l 1,14,-1
 276 438 l 1,15,-1
 276 391.296875 l 1,16,-1
 276 384 l 1,17,-1
 266 384 l 1,18,-1
 212 384 l 1,19,-1
 212 64 l 1,20,-1
 266 64 l 1,21,-1
 276 64 l 1,22,-1
 276 56.703125 l 1,23,-1
 276 10 l 1,24,-1
 276 0 l 1,25,-1
 266 0 l 1,26,-1
 74 0 l 1,27,-1
 64 0 l 1,0,-1
EndSplineSet
Validated: 524289
EndChar

StartChar: J
Encoding: 74 74 45
Width: 424
Flags: W
LayerCount: 2
Fore
SplineSet
0 64 m 1,0,-1
 0 64 l 1,1,-1
 0 118 l 1,2,-1
 0 128 l 1,3,-1
 10 128 l 1,4,-1
 74 128 l 1,5,-1
 84 128 l 1,6,-1
 84 118 l 1,7,-1
 84 64 l 1,8,-1
 276 64 l 1,9,-1
 276 438 l 1,10,-1
 276 448 l 1,11,-1
 286 448 l 1,12,-1
 350 448 l 1,13,-1
 360 448 l 1,14,-1
 360 438 l 1,15,-1
 360 73.4921875 l 1,16,-1
 360 64 l 1,17,-1
 350 64 l 1,18,-1
 296 64 l 1,19,-1
 296 10 l 1,20,-1
 296 0 l 1,21,-1
 286 0 l 1,22,-1
 74 0 l 1,23,-1
 64 0 l 1,24,-1
 64 10 l 1,25,-1
 64 64 l 1,26,-1
 10 64 l 1,27,-1
 0 64 l 1,0,-1
EndSplineSet
Validated: 524293
EndChar

StartChar: K
Encoding: 75 75 46
Width: 424
Flags: W
LayerCount: 2
Fore
SplineSet
0 0 m 1,0,-1
 0 10 l 1,1,-1
 0 438 l 1,2,-1
 0 448 l 1,3,-1
 10 448 l 1,4,-1
 74 448 l 1,5,-1
 84 448 l 1,6,-1
 84 438 l 1,7,-1
 84 266 l 1,8,-1
 206.66893039 266 l 1,9,-1
 206.66893039 320 l 1,10,-1
 206.66893039 330 l 1,11,-1
 218.791171477 330 l 1,12,-1
 276 330 l 1,13,-1
 276 438 l 1,14,-1
 276 448 l 1,15,-1
 286 448 l 1,16,-1
 350 448 l 1,17,-1
 360 448 l 1,18,-1
 360 438 l 1,19,-1
 360 319.275390625 l 1,20,-1
 360 310 l 1,21,-1
 350 310 l 1,22,-1
 296 310 l 1,23,-1
 296 202 l 1,24,-1
 350 202 l 1,25,-1
 360 202 l 1,26,-1
 360 192.495117188 l 1,27,-1
 360 10 l 1,28,-1
 360 0 l 1,29,-1
 350 0 l 1,30,-1
 286 0 l 1,31,-1
 276 0 l 1,32,-1
 276 10 l 1,33,-1
 276 182 l 1,34,-1
 84 182 l 1,35,-1
 84 10 l 1,36,-1
 84 0 l 1,37,-1
 74 0 l 1,38,-1
 10 0 l 1,39,-1
 0 0 l 1,0,-1
EndSplineSet
Validated: 524289
EndChar

StartChar: L
Encoding: 76 76 47
Width: 424
Flags: W
LayerCount: 2
Fore
SplineSet
0 0 m 1,0,-1
 0 10 l 1,1,-1
 0 438 l 1,2,-1
 0 448 l 1,3,-1
 10 448 l 1,4,-1
 74 448 l 1,5,-1
 84 448 l 1,6,-1
 84 438 l 1,7,-1
 84 64 l 1,8,-1
 350 64 l 1,9,-1
 360 64 l 1,10,-1
 360 56.703125 l 1,11,-1
 360 10 l 1,12,-1
 360 0 l 1,13,-1
 350 0 l 1,14,-1
 10 0 l 1,15,-1
 0 0 l 1,0,-1
EndSplineSet
Validated: 524289
EndChar

StartChar: M
Encoding: 77 77 48
Width: 424
Flags: W
LayerCount: 2
Fore
SplineSet
0 0 m 1,0,-1
 0 10 l 1,1,-1
 0 374.5078125 l 1,2,-1
 0 384 l 1,3,-1
 10 384 l 1,4,-1
 64 384 l 1,5,-1
 64 438 l 1,6,-1
 64 448 l 1,7,-1
 74 448 l 1,8,-1
 141.208828523 448 l 1,9,-1
 153.33106961 448 l 1,10,-1
 153.33106961 438 l 1,11,-1
 153.33106961 384 l 1,12,-1
 206.66893039 384 l 1,13,-1
 206.66893039 438 l 1,14,-1
 206.66893039 448 l 1,15,-1
 218.791171477 448 l 1,16,-1
 286 448 l 1,17,-1
 296 448 l 1,18,-1
 296 438 l 1,19,-1
 296 384 l 1,20,-1
 350 384 l 1,21,-1
 360 384 l 1,22,-1
 360 374.5078125 l 1,23,-1
 360 10 l 1,24,-1
 360 0 l 1,25,-1
 350 0 l 1,26,-1
 286 0 l 1,27,-1
 276 0 l 1,28,-1
 276 10 l 1,29,-1
 276 384 l 1,30,-1
 230.913412564 384 l 1,31,-1
 230.913412564 138 l 1,32,-1
 230.913412564 128 l 1,33,-1
 218.791171477 128 l 1,34,-1
 141.208828523 128 l 1,35,-1
 129.086587436 128 l 1,36,-1
 129.086587436 138 l 1,37,-1
 129.086587436 384 l 1,38,-1
 84 384 l 1,39,-1
 84 10 l 1,40,-1
 84 0 l 1,41,-1
 74 0 l 1,42,-1
 10 0 l 1,43,-1
 0 0 l 1,0,-1
EndSplineSet
Validated: 524289
EndChar

StartChar: N
Encoding: 78 78 49
Width: 424
Flags: W
LayerCount: 2
Fore
SplineSet
276 0 m 1,0,-1
 276 10 l 1,1,-1
 276 64 l 1,2,-1
 218.791171477 64 l 1,3,-1
 206.66893039 64 l 1,4,-1
 206.66893039 74 l 1,5,-1
 206.66893039 128 l 1,6,-1
 141.208828523 128 l 1,7,-1
 129.086587436 128 l 1,8,-1
 129.086587436 138 l 1,9,-1
 129.086587436 320 l 1,10,-1
 84 320 l 1,11,-1
 84 10 l 1,12,-1
 84 0 l 1,13,-1
 74 0 l 1,14,-1
 10 0 l 1,15,-1
 0 0 l 1,16,-1
 0 10 l 1,17,-1
 0 438 l 1,18,-1
 0 448 l 1,19,-1
 10 448 l 1,20,-1
 74 448 l 1,21,-1
 84 448 l 1,22,-1
 84 438 l 1,23,-1
 84 384 l 1,24,-1
 141.208828523 384 l 1,25,-1
 153.33106961 384 l 1,26,-1
 153.33106961 374 l 1,27,-1
 153.33106961 320 l 1,28,-1
 218.791171477 320 l 1,29,-1
 230.913412564 320 l 1,30,-1
 230.913412564 310 l 1,31,-1
 230.913412564 128 l 1,32,-1
 276 128 l 1,33,-1
 276 438 l 1,34,-1
 276 448 l 1,35,-1
 286 448 l 1,36,-1
 350 448 l 1,37,-1
 360 448 l 1,38,-1
 360 438 l 1,39,-1
 360 10 l 1,40,-1
 360 0 l 1,41,-1
 350 0 l 1,42,-1
 286 0 l 1,43,-1
 276 0 l 1,0,-1
EndSplineSet
Validated: 524289
EndChar

StartChar: O
Encoding: 79 79 50
Width: 424
Flags: W
LayerCount: 2
Fore
SplineSet
0 64 m 1,0,-1
 0 73.412109375 l 1,1,-1
 0 374.587890625 l 1,2,-1
 0 384 l 1,3,-1
 10 384 l 1,4,-1
 64 384 l 1,5,-1
 64 438 l 1,6,-1
 64 448 l 1,7,-1
 74 448 l 1,8,-1
 286 448 l 1,9,-1
 296 448 l 1,10,-1
 296 438 l 1,11,-1
 296 384 l 1,12,-1
 350 384 l 1,13,-1
 360 384 l 1,14,-1
 360 374.587890625 l 1,15,-1
 360 73.412109375 l 1,16,-1
 360 64 l 1,17,-1
 350 64 l 1,18,-1
 296 64 l 1,19,-1
 296 10 l 1,20,-1
 296 0 l 1,21,-1
 286 0 l 1,22,-1
 74 0 l 1,23,-1
 64 0 l 1,24,-1
 64 10 l 1,25,-1
 64 64 l 1,26,-1
 10 64 l 1,27,-1
 0 64 l 1,0,-1
276 64 m 1,28,-1
 276 384 l 1,29,-1
 84 384 l 1,30,-1
 84 64 l 1,31,-1
 276 64 l 1,28,-1
EndSplineSet
Validated: 524289
EndChar

StartChar: P
Encoding: 80 80 51
Width: 424
Flags: W
LayerCount: 2
Fore
SplineSet
0 0 m 1,0,-1
 0 10 l 1,1,-1
 0 438 l 1,2,-1
 0 448 l 1,3,-1
 10 448 l 1,4,-1
 286 448 l 1,5,-1
 296 448 l 1,6,-1
 296 438 l 1,7,-1
 296 394 l 1,8,-1
 350 394 l 1,9,-1
 360 394 l 1,10,-1
 360 384 l 1,11,-1
 360 256 l 1,12,-1
 360 246 l 1,13,-1
 350 246 l 1,14,-1
 296 246 l 1,15,-1
 296 192 l 1,16,-1
 296 182 l 1,17,-1
 286 182 l 1,18,-1
 84 182 l 1,19,-1
 84 10 l 1,20,-1
 84 0 l 1,21,-1
 74 0 l 1,22,-1
 10 0 l 1,23,-1
 0 0 l 1,0,-1
276 266 m 1,24,-1
 276 384 l 1,25,-1
 84 384 l 1,26,-1
 84 266 l 1,27,-1
 276 266 l 1,24,-1
EndSplineSet
Validated: 1
EndChar

StartChar: Q
Encoding: 81 81 52
Width: 424
Flags: W
LayerCount: 2
Fore
SplineSet
0 64 m 1,0,-1
 0 73.412109375 l 1,1,-1
 0 374.587890625 l 1,2,-1
 0 384 l 1,3,-1
 10 384 l 1,4,-1
 64 384 l 1,5,-1
 64 438 l 1,6,-1
 64 448 l 1,7,-1
 74 448 l 1,8,-1
 286 448 l 1,9,-1
 296 448 l 1,10,-1
 296 438 l 1,11,-1
 296 384 l 1,12,-1
 350 384 l 1,13,-1
 360 384 l 1,14,-1
 360 374.587890625 l 1,15,-1
 360 73.412109375 l 1,16,-1
 360 64 l 1,17,-1
 350 64 l 1,18,-1
 296 64 l 1,19,-1
 296 10 l 1,20,-1
 296 0 l 1,21,-1
 286 0 l 1,22,-1
 230.913412564 0 l 1,23,-1
 230.913412564 -44 l 1,24,-1
 286 -44 l 1,25,-1
 296 -44 l 1,26,-1
 296 -54 l 1,27,-1
 296 -118 l 1,28,-1
 296 -128 l 1,29,-1
 286 -128 l 1,30,-1
 218.791171477 -128 l 1,31,-1
 206.66893039 -128 l 1,32,-1
 206.66893039 -118 l 1,33,-1
 206.66893039 -64 l 1,34,-1
 141.208828523 -64 l 1,35,-1
 129.086587436 -64 l 1,36,-1
 129.086587436 -54 l 1,37,-1
 129.086587436 0 l 1,38,-1
 74 0 l 1,39,-1
 64 0 l 1,40,-1
 64 10 l 1,41,-1
 64 64 l 1,42,-1
 10 64 l 1,43,-1
 0 64 l 1,0,-1
276 64 m 1,44,-1
 276 384 l 1,45,-1
 84 384 l 1,46,-1
 84 64 l 1,47,-1
 129.086587436 64 l 1,48,-1
 129.086587436 118 l 1,49,-1
 129.086587436 128 l 1,50,-1
 141.208828523 128 l 1,51,-1
 218.791171477 128 l 1,52,-1
 230.913412564 128 l 1,53,-1
 230.913412564 118 l 1,54,-1
 230.913412564 64 l 1,55,-1
 276 64 l 1,44,-1
EndSplineSet
Validated: 525313
EndChar

StartChar: R
Encoding: 82 82 53
Width: 424
Flags: W
LayerCount: 2
Fore
SplineSet
0 0 m 1,0,-1
 0 10 l 1,1,-1
 0 438 l 1,2,-1
 0 448 l 1,3,-1
 10 448 l 1,4,-1
 286 448 l 1,5,-1
 296 448 l 1,6,-1
 296 438 l 1,7,-1
 296 394 l 1,8,-1
 350 394 l 1,9,-1
 360 394 l 1,10,-1
 360 384 l 1,11,-1
 360 256 l 1,12,-1
 360 246 l 1,13,-1
 350 246 l 1,14,-1
 296 246 l 1,15,-1
 296 202 l 1,16,-1
 350 202 l 1,17,-1
 360 202 l 1,18,-1
 360 192.495117188 l 1,19,-1
 360 10 l 1,20,-1
 360 0 l 1,21,-1
 350 0 l 1,22,-1
 286 0 l 1,23,-1
 276 0 l 1,24,-1
 276 10 l 1,25,-1
 276 182 l 1,26,-1
 84 182 l 1,27,-1
 84 10 l 1,28,-1
 84 0 l 1,29,-1
 74 0 l 1,30,-1
 10 0 l 1,31,-1
 0 0 l 1,0,-1
276 266 m 1,32,-1
 276 384 l 1,33,-1
 84 384 l 1,34,-1
 84 266 l 1,35,-1
 276 266 l 1,32,-1
EndSplineSet
Validated: 524289
EndChar

StartChar: S
Encoding: 83 83 54
Width: 424
Flags: W
LayerCount: 2
Fore
SplineSet
0 246 m 1,0,-1
 0 256 l 1,1,-1
 0 384 l 1,2,-1
 0 394 l 1,3,-1
 10 394 l 1,4,-1
 64 394 l 1,5,-1
 64 438 l 1,6,-1
 64 448 l 1,7,-1
 74 448 l 1,8,-1
 286 448 l 1,9,-1
 296 448 l 1,10,-1
 296 438 l 1,11,-1
 296 394 l 1,12,-1
 350 394 l 1,13,-1
 360 394 l 1,14,-1
 360 389 l 1,15,-1
 360 330 l 1,16,-1
 360 320 l 1,17,-1
 350 320 l 1,18,-1
 286 320 l 1,19,-1
 276 320 l 1,20,-1
 276 330 l 1,21,-1
 276 384 l 1,22,-1
 84 384 l 1,23,-1
 84 266 l 1,24,-1
 286 266 l 1,25,-1
 296 266 l 1,26,-1
 296 256 l 1,27,-1
 296 202 l 1,28,-1
 350 202 l 1,29,-1
 360 202 l 1,30,-1
 360 192.67578125 l 1,31,-1
 360 73.32421875 l 1,32,-1
 360 64 l 1,33,-1
 350 64 l 1,34,-1
 296 64 l 1,35,-1
 296 10 l 1,36,-1
 296 0 l 1,37,-1
 286 0 l 1,38,-1
 74 0 l 1,39,-1
 64 0 l 1,40,-1
 64 10 l 1,41,-1
 64 64 l 1,42,-1
 10 64 l 1,43,-1
 0 64 l 1,44,-1
 0 64 l 1,45,-1
 0 118 l 1,46,-1
 0 128 l 1,47,-1
 10 128 l 1,48,-1
 74 128 l 1,49,-1
 84 128 l 1,50,-1
 84 118 l 1,51,-1
 84 64 l 1,52,-1
 276 64 l 1,53,-1
 276 182 l 1,54,-1
 74 182 l 1,55,-1
 64 182 l 1,56,-1
 64 192 l 1,57,-1
 64 246 l 1,58,-1
 10 246 l 1,59,-1
 0 246 l 1,0,-1
EndSplineSet
Validated: 525317
EndChar

StartChar: T
Encoding: 84 84 55
Width: 424
Flags: W
LayerCount: 2
Fore
SplineSet
129.086587436 0 m 1,0,-1
 129.086587436 10 l 1,1,-1
 129.086587436 384 l 1,2,-1
 10 384 l 1,3,-1
 0 384 l 1,4,-1
 0 391.296875 l 1,5,-1
 0 438 l 1,6,-1
 0 448 l 1,7,-1
 10 448 l 1,8,-1
 350 448 l 1,9,-1
 360 448 l 1,10,-1
 360 438 l 1,11,-1
 360 391.296875 l 1,12,-1
 360 384 l 1,13,-1
 350 384 l 1,14,-1
 230.913412564 384 l 1,15,-1
 230.913412564 10 l 1,16,-1
 230.913412564 0 l 1,17,-1
 218.791171477 0 l 1,18,-1
 141.208828523 0 l 1,19,-1
 129.086587436 0 l 1,0,-1
EndSplineSet
Validated: 524289
EndChar

StartChar: U
Encoding: 85 85 56
Width: 424
Flags: W
LayerCount: 2
Fore
SplineSet
0 64 m 1,0,-1
 0 73.4921875 l 1,1,-1
 0 438 l 1,2,-1
 0 448 l 1,3,-1
 10 448 l 1,4,-1
 74 448 l 1,5,-1
 84 448 l 1,6,-1
 84 438 l 1,7,-1
 84 64 l 1,8,-1
 276 64 l 1,9,-1
 276 438 l 1,10,-1
 276 448 l 1,11,-1
 286 448 l 1,12,-1
 350 448 l 1,13,-1
 360 448 l 1,14,-1
 360 438 l 1,15,-1
 360 73.4921875 l 1,16,-1
 360 64 l 1,17,-1
 350 64 l 1,18,-1
 296 64 l 1,19,-1
 296 10 l 1,20,-1
 296 0 l 1,21,-1
 286 0 l 1,22,-1
 74 0 l 1,23,-1
 64 0 l 1,24,-1
 64 10 l 1,25,-1
 64 64 l 1,26,-1
 10 64 l 1,27,-1
 0 64 l 1,0,-1
EndSplineSet
Validated: 524289
EndChar

StartChar: V
Encoding: 86 86 57
Width: 424
Flags: W
LayerCount: 2
Fore
SplineSet
0 182 m 1,0,-1
 0 191.624023438 l 1,1,-1
 0 438 l 1,2,-1
 0 448 l 1,3,-1
 10 448 l 1,4,-1
 74 448 l 1,5,-1
 84 448 l 1,6,-1
 84 438 l 1,7,-1
 84 202 l 1,8,-1
 141.208828523 202 l 1,9,-1
 153.33106961 202 l 1,10,-1
 153.33106961 191.21875 l 1,11,-1
 153.33106961 64 l 1,12,-1
 206.66893039 64 l 1,13,-1
 206.66893039 191.21875 l 1,14,-1
 206.66893039 202 l 1,15,-1
 218.791171477 202 l 1,16,-1
 276 202 l 1,17,-1
 276 438 l 1,18,-1
 276 448 l 1,19,-1
 286 448 l 1,20,-1
 350 448 l 1,21,-1
 360 448 l 1,22,-1
 360 438 l 1,23,-1
 360 191.624023438 l 1,24,-1
 360 182 l 1,25,-1
 350 182 l 1,26,-1
 296 182 l 1,27,-1
 296 73.21875 l 1,28,-1
 296 64 l 1,29,-1
 286 64 l 1,30,-1
 230.913412564 64 l 1,31,-1
 230.913412564 10 l 1,32,-1
 230.913412564 0 l 1,33,-1
 218.791171477 0 l 1,34,-1
 141.208828523 0 l 1,35,-1
 129.086587436 0 l 1,36,-1
 129.086587436 10 l 1,37,-1
 129.086587436 64 l 1,38,-1
 74 64 l 1,39,-1
 64 64 l 1,40,-1
 64 73.21875 l 1,41,-1
 64 182 l 1,42,-1
 10 182 l 1,43,-1
 0 182 l 1,0,-1
EndSplineSet
Validated: 524289
EndChar

StartChar: W
Encoding: 87 87 58
Width: 424
Flags: W
LayerCount: 2
Fore
SplineSet
0 64 m 1,0,-1
 0 73.4921875 l 1,1,-1
 0 438 l 1,2,-1
 0 448 l 1,3,-1
 10 448 l 1,4,-1
 74 448 l 1,5,-1
 84 448 l 1,6,-1
 84 438 l 1,7,-1
 84 64 l 1,8,-1
 129.086587436 64 l 1,9,-1
 129.086587436 374 l 1,10,-1
 129.086587436 384 l 1,11,-1
 141.208828523 384 l 1,12,-1
 218.791171477 384 l 1,13,-1
 230.913412564 384 l 1,14,-1
 230.913412564 374 l 1,15,-1
 230.913412564 64 l 1,16,-1
 276 64 l 1,17,-1
 276 438 l 1,18,-1
 276 448 l 1,19,-1
 286 448 l 1,20,-1
 350 448 l 1,21,-1
 360 448 l 1,22,-1
 360 438 l 1,23,-1
 360 73.4921875 l 1,24,-1
 360 64 l 1,25,-1
 350 64 l 1,26,-1
 296 64 l 1,27,-1
 296 10 l 1,28,-1
 296 0 l 1,29,-1
 286 0 l 1,30,-1
 218.791171477 0 l 1,31,-1
 206.66893039 0 l 1,32,-1
 206.66893039 10 l 1,33,-1
 206.66893039 64 l 1,34,-1
 153.33106961 64 l 1,35,-1
 153.33106961 10 l 1,36,-1
 153.33106961 0 l 1,37,-1
 141.208828523 0 l 1,38,-1
 74 0 l 1,39,-1
 64 0 l 1,40,-1
 64 10 l 1,41,-1
 64 64 l 1,42,-1
 10 64 l 1,43,-1
 0 64 l 1,0,-1
EndSplineSet
Validated: 524289
EndChar

StartChar: X
Encoding: 88 88 59
Width: 424
Flags: W
LayerCount: 2
Fore
SplineSet
0 310 m 1,0,-1
 0 319.275390625 l 1,1,-1
 0 438 l 1,2,-1
 0 448 l 1,3,-1
 10 448 l 1,4,-1
 74 448 l 1,5,-1
 84 448 l 1,6,-1
 84 438 l 1,7,-1
 84 330 l 1,8,-1
 141.208828523 330 l 1,9,-1
 153.33106961 330 l 1,10,-1
 153.33106961 320 l 1,11,-1
 153.33106961 266 l 1,12,-1
 206.66893039 266 l 1,13,-1
 206.66893039 320 l 1,14,-1
 206.66893039 330 l 1,15,-1
 218.791171477 330 l 1,16,-1
 276 330 l 1,17,-1
 276 438 l 1,18,-1
 276 448 l 1,19,-1
 286 448 l 1,20,-1
 350 448 l 1,21,-1
 360 448 l 1,22,-1
 360 438 l 1,23,-1
 360 319.275390625 l 1,24,-1
 360 310 l 1,25,-1
 350 310 l 1,26,-1
 296 310 l 1,27,-1
 296 256 l 1,28,-1
 296 246 l 1,29,-1
 286 246 l 1,30,-1
 230.913412564 246 l 1,31,-1
 230.913412564 202 l 1,32,-1
 286 202 l 1,33,-1
 296 202 l 1,34,-1
 296 193.5625 l 1,35,-1
 296 148 l 1,36,-1
 350 148 l 1,37,-1
 360 148 l 1,38,-1
 360 138 l 1,39,-1
 360 10 l 1,40,-1
 360 0 l 1,41,-1
 350 0 l 1,42,-1
 286 0 l 1,43,-1
 276 0 l 1,44,-1
 276 10 l 1,45,-1
 276 128 l 1,46,-1
 218.791171477 128 l 1,47,-1
 206.66893039 128 l 1,48,-1
 206.66893039 136.4375 l 1,49,-1
 206.66893039 182 l 1,50,-1
 153.33106961 182 l 1,51,-1
 153.33106961 136.4375 l 1,52,-1
 153.33106961 128 l 1,53,-1
 141.208828523 128 l 1,54,-1
 84 128 l 1,55,-1
 84 10 l 1,56,-1
 84 0 l 1,57,-1
 74 0 l 1,58,-1
 10 0 l 1,59,-1
 0 0 l 1,60,-1
 0 10 l 1,61,-1
 0 138 l 1,62,-1
 0 148 l 1,63,-1
 10 148 l 1,64,-1
 64 148 l 1,65,-1
 64 193.5625 l 1,66,-1
 64 202 l 1,67,-1
 74 202 l 1,68,-1
 129.086587436 202 l 1,69,-1
 129.086587436 246 l 1,70,-1
 74 246 l 1,71,-1
 64 246 l 1,72,-1
 64 256 l 1,73,-1
 64 310 l 1,74,-1
 10 310 l 1,75,-1
 0 310 l 1,0,-1
EndSplineSet
Validated: 525313
EndChar

StartChar: Y
Encoding: 89 89 60
Width: 424
Flags: W
LayerCount: 2
Fore
SplineSet
0 310 m 1,0,-1
 0 319.275390625 l 1,1,-1
 0 438 l 1,2,-1
 0 448 l 1,3,-1
 10 448 l 1,4,-1
 74 448 l 1,5,-1
 84 448 l 1,6,-1
 84 438 l 1,7,-1
 84 330 l 1,8,-1
 141.208828523 330 l 1,9,-1
 153.33106961 330 l 1,10,-1
 153.33106961 320 l 1,11,-1
 153.33106961 266 l 1,12,-1
 206.66893039 266 l 1,13,-1
 206.66893039 320 l 1,14,-1
 206.66893039 330 l 1,15,-1
 218.791171477 330 l 1,16,-1
 276 330 l 1,17,-1
 276 438 l 1,18,-1
 276 448 l 1,19,-1
 286 448 l 1,20,-1
 350 448 l 1,21,-1
 360 448 l 1,22,-1
 360 438 l 1,23,-1
 360 319.275390625 l 1,24,-1
 360 310 l 1,25,-1
 350 310 l 1,26,-1
 296 310 l 1,27,-1
 296 256 l 1,28,-1
 296 246 l 1,29,-1
 286 246 l 1,30,-1
 230.913412564 246 l 1,31,-1
 230.913412564 10 l 1,32,-1
 230.913412564 0 l 1,33,-1
 218.791171477 0 l 1,34,-1
 141.208828523 0 l 1,35,-1
 129.086587436 0 l 1,36,-1
 129.086587436 10 l 1,37,-1
 129.086587436 246 l 1,38,-1
 74 246 l 1,39,-1
 64 246 l 1,40,-1
 64 256 l 1,41,-1
 64 310 l 1,42,-1
 10 310 l 1,43,-1
 0 310 l 1,0,-1
EndSplineSet
Validated: 524289
EndChar

StartChar: Z
Encoding: 90 90 61
Width: 424
Flags: W
LayerCount: 2
Fore
SplineSet
0 0 m 1,0,-1
 0 10 l 1,1,-1
 0 138 l 1,2,-1
 0 148 l 1,3,-1
 10 148 l 1,4,-1
 64 148 l 1,5,-1
 64 193.5625 l 1,6,-1
 64 202 l 1,7,-1
 74 202 l 1,8,-1
 129.086587436 202 l 1,9,-1
 129.086587436 256 l 1,10,-1
 129.086587436 266 l 1,11,-1
 141.208828523 266 l 1,12,-1
 206.66893039 266 l 1,13,-1
 206.66893039 320 l 1,14,-1
 206.66893039 330 l 1,15,-1
 218.791171477 330 l 1,16,-1
 276 330 l 1,17,-1
 276 384 l 1,18,-1
 10 384 l 1,19,-1
 0 384 l 1,20,-1
 0 391.296875 l 1,21,-1
 0 438 l 1,22,-1
 0 448 l 1,23,-1
 10 448 l 1,24,-1
 350 448 l 1,25,-1
 360 448 l 1,26,-1
 360 438 l 1,27,-1
 360 319.275390625 l 1,28,-1
 360 310 l 1,29,-1
 350 310 l 1,30,-1
 296 310 l 1,31,-1
 296 256 l 1,32,-1
 296 246 l 1,33,-1
 286 246 l 1,34,-1
 230.913412564 246 l 1,35,-1
 230.913412564 192 l 1,36,-1
 230.913412564 182 l 1,37,-1
 218.791171477 182 l 1,38,-1
 153.33106961 182 l 1,39,-1
 153.33106961 136.4375 l 1,40,-1
 153.33106961 128 l 1,41,-1
 141.208828523 128 l 1,42,-1
 84 128 l 1,43,-1
 84 64 l 1,44,-1
 350 64 l 1,45,-1
 360 64 l 1,46,-1
 360 56.703125 l 1,47,-1
 360 10 l 1,48,-1
 360 0 l 1,49,-1
 350 0 l 1,50,-1
 10 0 l 1,51,-1
 0 0 l 1,0,-1
EndSplineSet
Validated: 524289
EndChar

StartChar: bracketleft
Encoding: 91 91 62
Width: 384
Flags: W
LayerCount: 2
Fore
SplineSet
118 -64 m 1,0,-1
 118 512 l 1,1,-1
 118 522 l 1,2,-1
 128 522 l 1,3,-1
 256 522 l 1,4,-1
 266 522 l 1,5,-1
 266 512 l 1,6,-1
 266 448 l 1,7,-1
 266 438 l 1,8,-1
 256 438 l 1,9,-1
 202 438 l 1,10,-1
 202 10 l 1,11,-1
 256 10 l 1,12,-1
 266 10 l 1,13,-1
 266 0 l 1,14,-1
 266 -64 l 1,15,-1
 266 -74 l 1,16,-1
 256 -74 l 1,17,-1
 128 -74 l 1,18,-1
 118 -74 l 1,19,-1
 118 -64 l 1,0,-1
EndSplineSet
Validated: 1
EndChar

StartChar: backslash
Encoding: 92 92 63
Width: 384
Flags: W
LayerCount: 2
Fore
SplineSet
-10 320 m 1,0,-1
 -10 384 l 1,1,-1
 -10 394 l 1,2,-1
 0 394 l 1,3,-1
 64 394 l 1,4,-1
 74 394 l 1,5,-1
 74 384 l 1,6,-1
 74 330 l 1,7,-1
 128 330 l 1,8,-1
 138 330 l 1,9,-1
 138 320 l 1,10,-1
 138 266 l 1,11,-1
 192 266 l 1,12,-1
 202 266 l 1,13,-1
 202 256 l 1,14,-1
 202 202 l 1,15,-1
 256 202 l 1,16,-1
 266 202 l 1,17,-1
 266 192 l 1,18,-1
 266 138 l 1,19,-1
 320 138 l 1,20,-1
 330 138 l 1,21,-1
 330 128 l 1,22,-1
 330 64 l 1,23,-1
 330 54 l 1,24,-1
 320 54 l 1,25,-1
 256 54 l 1,26,-1
 246 54 l 1,27,-1
 246 64 l 1,28,-1
 246 118 l 1,29,-1
 192 118 l 1,30,-1
 182 118 l 1,31,-1
 182 128 l 1,32,-1
 182 182 l 1,33,-1
 128 182 l 1,34,-1
 118 182 l 1,35,-1
 118 192 l 1,36,-1
 118 246 l 1,37,-1
 64 246 l 1,38,-1
 54 246 l 1,39,-1
 54 256 l 1,40,-1
 54 310 l 1,41,-1
 0 310 l 1,42,-1
 -10 310 l 1,43,-1
 -10 320 l 1,0,-1
EndSplineSet
Validated: 5
EndChar

StartChar: bracketright
Encoding: 93 93 64
Width: 384
Flags: W
LayerCount: 2
Fore
SplineSet
54 -64 m 1,0,-1
 54 0 l 1,1,-1
 54 10 l 1,2,-1
 64 10 l 1,3,-1
 118 10 l 1,4,-1
 118 438 l 1,5,-1
 64 438 l 1,6,-1
 54 438 l 1,7,-1
 54 448 l 1,8,-1
 54 512 l 1,9,-1
 54 522 l 1,10,-1
 64 522 l 1,11,-1
 192 522 l 1,12,-1
 202 522 l 1,13,-1
 202 512 l 1,14,-1
 202 -64 l 1,15,-1
 202 -74 l 1,16,-1
 192 -74 l 1,17,-1
 64 -74 l 1,18,-1
 54 -74 l 1,19,-1
 54 -64 l 1,0,-1
EndSplineSet
Validated: 1
EndChar

StartChar: asciicircum
Encoding: 94 94 65
Width: 384
Flags: W
LayerCount: 2
Fore
SplineSet
-10 256 m 1,0,-1
 -10 320 l 1,1,-1
 -10 330 l 1,2,-1
 0 330 l 1,3,-1
 54 330 l 1,4,-1
 54 384 l 1,5,-1
 54 394 l 1,6,-1
 64 394 l 1,7,-1
 118 394 l 1,8,-1
 118 448 l 1,9,-1
 118 458 l 1,10,-1
 128 458 l 1,11,-1
 192 458 l 1,12,-1
 202 458 l 1,13,-1
 202 448 l 1,14,-1
 202 394 l 1,15,-1
 256 394 l 1,16,-1
 266 394 l 1,17,-1
 266 384 l 1,18,-1
 266 330 l 1,19,-1
 320 330 l 1,20,-1
 330 330 l 1,21,-1
 330 320 l 1,22,-1
 330 256 l 1,23,-1
 330 246 l 1,24,-1
 320 246 l 1,25,-1
 256 246 l 1,26,-1
 246 246 l 1,27,-1
 246 256 l 1,28,-1
 246 310 l 1,29,-1
 192 310 l 1,30,-1
 182 310 l 1,31,-1
 182 320 l 1,32,-1
 182 374 l 1,33,-1
 138 374 l 1,34,-1
 138 320 l 1,35,-1
 138 310 l 1,36,-1
 128 310 l 1,37,-1
 74 310 l 1,38,-1
 74 256 l 1,39,-1
 74 246 l 1,40,-1
 64 246 l 1,41,-1
 0 246 l 1,42,-1
 -10 246 l 1,43,-1
 -10 256 l 1,0,-1
EndSplineSet
Validated: 5
EndChar

StartChar: underscore
Encoding: 95 95 66
Width: 384
Flags: W
LayerCount: 2
Fore
SplineSet
-10 -64 m 1,0,-1
 -10 0 l 1,1,-1
 -10 10 l 1,2,-1
 0 10 l 1,3,-1
 320 10 l 1,4,-1
 330 10 l 1,5,-1
 330 0 l 1,6,-1
 330 -64 l 1,7,-1
 330 -74 l 1,8,-1
 320 -74 l 1,9,-1
 0 -74 l 1,10,-1
 -10 -74 l 1,11,-1
 -10 -64 l 1,0,-1
EndSplineSet
Validated: 1
EndChar

StartChar: grave
Encoding: 96 96 67
Width: 384
Flags: W
LayerCount: 2
Fore
SplineSet
118 384 m 1,0,-1
 118 448 l 1,1,-1
 118 458 l 1,2,-1
 128 458 l 1,3,-1
 192 458 l 1,4,-1
 202 458 l 1,5,-1
 202 448 l 1,6,-1
 202 394 l 1,7,-1
 256 394 l 1,8,-1
 266 394 l 1,9,-1
 266 384 l 1,10,-1
 266 320 l 1,11,-1
 266 310 l 1,12,-1
 256 310 l 1,13,-1
 192 310 l 1,14,-1
 182 310 l 1,15,-1
 182 320 l 1,16,-1
 182 374 l 1,17,-1
 128 374 l 1,18,-1
 118 374 l 1,19,-1
 118 384 l 1,0,-1
EndSplineSet
Validated: 5
EndChar

StartChar: a
Encoding: 97 97 68
Width: 424
Flags: W
LayerCount: 2
Fore
SplineSet
64 256 m 1,0,-1
 64 263.296875 l 1,1,-1
 64 310 l 1,2,-1
 64 320 l 1,3,-1
 74 320 l 1,4,-1
 286 320 l 1,5,-1
 296 320 l 1,6,-1
 296 310 l 1,7,-1
 296 256 l 1,8,-1
 350 256 l 1,9,-1
 360 256 l 1,10,-1
 360 246.751953125 l 1,11,-1
 360 10 l 1,12,-1
 360 0 l 1,13,-1
 350 0 l 1,14,-1
 74 0 l 1,15,-1
 64 0 l 1,16,-1
 64 10 l 1,17,-1
 64 64 l 1,18,-1
 10 64 l 1,19,-1
 0 64 l 1,20,-1
 0 72.8095703125 l 1,21,-1
 0 129.190429688 l 1,22,-1
 0 138 l 1,23,-1
 10 138 l 1,24,-1
 64 138 l 1,25,-1
 64 197 l 1,26,-1
 64 207.92578125 l 1,27,-1
 74 207.92578125 l 1,28,-1
 276 207.92578125 l 1,29,-1
 276 256 l 1,30,-1
 74 256 l 1,31,-1
 64 256 l 1,0,-1
84 118 m 1,32,-1
 84 64 l 1,33,-1
 276 64 l 1,34,-1
 276 118 l 1,35,-1
 84 118 l 1,32,-1
EndSplineSet
Validated: 524289
EndChar

StartChar: b
Encoding: 98 98 69
Width: 424
Flags: W
LayerCount: 2
Fore
SplineSet
0 0 m 1,0,-1
 0 10 l 1,1,-1
 0 438 l 1,2,-1
 0 448 l 1,3,-1
 10 448 l 1,4,-1
 74 448 l 1,5,-1
 84 448 l 1,6,-1
 84 438 l 1,7,-1
 84 320 l 1,8,-1
 286 320 l 1,9,-1
 296 320 l 1,10,-1
 296 310 l 1,11,-1
 296 256 l 1,12,-1
 350 256 l 1,13,-1
 360 256 l 1,14,-1
 360 246.943359375 l 1,15,-1
 360 73.056640625 l 1,16,-1
 360 64 l 1,17,-1
 350 64 l 1,18,-1
 296 64 l 1,19,-1
 296 10 l 1,20,-1
 296 0 l 1,21,-1
 286 0 l 1,22,-1
 10 0 l 1,23,-1
 0 0 l 1,0,-1
276 64 m 1,24,-1
 276 256 l 1,25,-1
 84 256 l 1,26,-1
 84 64 l 1,27,-1
 276 64 l 1,24,-1
EndSplineSet
Validated: 524289
EndChar

StartChar: c
Encoding: 99 99 70
Width: 424
Flags: W
LayerCount: 2
Fore
SplineSet
0 64 m 1,0,-1
 0 73.056640625 l 1,1,-1
 0 246.943359375 l 1,2,-1
 0 256 l 1,3,-1
 10 256 l 1,4,-1
 64 256 l 1,5,-1
 64 310 l 1,6,-1
 64 320 l 1,7,-1
 74 320 l 1,8,-1
 350 320 l 1,9,-1
 360 320 l 1,10,-1
 360 310 l 1,11,-1
 360 263.296875 l 1,12,-1
 360 256 l 1,13,-1
 350 256 l 1,14,-1
 84 256 l 1,15,-1
 84 64 l 1,16,-1
 350 64 l 1,17,-1
 360 64 l 1,18,-1
 360 56.703125 l 1,19,-1
 360 10 l 1,20,-1
 360 0 l 1,21,-1
 350 0 l 1,22,-1
 74 0 l 1,23,-1
 64 0 l 1,24,-1
 64 10 l 1,25,-1
 64 64 l 1,26,-1
 10 64 l 1,27,-1
 0 64 l 1,0,-1
EndSplineSet
Validated: 524289
EndChar

StartChar: d
Encoding: 100 100 71
Width: 424
Flags: W
LayerCount: 2
Fore
SplineSet
0 64 m 1,0,-1
 0 73.056640625 l 1,1,-1
 0 246.943359375 l 1,2,-1
 0 256 l 1,3,-1
 10 256 l 1,4,-1
 64 256 l 1,5,-1
 64 310 l 1,6,-1
 64 320 l 1,7,-1
 74 320 l 1,8,-1
 276 320 l 1,9,-1
 276 438 l 1,10,-1
 276 448 l 1,11,-1
 286 448 l 1,12,-1
 350 448 l 1,13,-1
 360 448 l 1,14,-1
 360 438 l 1,15,-1
 360 10 l 1,16,-1
 360 0 l 1,17,-1
 350 0 l 1,18,-1
 74 0 l 1,19,-1
 64 0 l 1,20,-1
 64 10 l 1,21,-1
 64 64 l 1,22,-1
 10 64 l 1,23,-1
 0 64 l 1,0,-1
84 256 m 1,24,-1
 84 64 l 1,25,-1
 276 64 l 1,26,-1
 276 256 l 1,27,-1
 84 256 l 1,24,-1
EndSplineSet
Validated: 524289
EndChar

StartChar: e
Encoding: 101 101 72
Width: 424
Flags: W
LayerCount: 2
Fore
SplineSet
0 64 m 1,0,-1
 0 73.5283203125 l 1,1,-1
 0 256.471679688 l 1,2,-1
 0 266 l 1,3,-1
 10 266 l 1,4,-1
 64 266 l 1,5,-1
 64 310 l 1,6,-1
 64 320 l 1,7,-1
 74 320 l 1,8,-1
 286 320 l 1,9,-1
 296 320 l 1,10,-1
 296 310 l 1,11,-1
 296 266 l 1,12,-1
 350 266 l 1,13,-1
 360 266 l 1,14,-1
 360 256 l 1,15,-1
 360 128 l 1,16,-1
 360 118 l 1,17,-1
 350 118 l 1,18,-1
 84 118 l 1,19,-1
 84 64 l 1,20,-1
 286 64 l 1,21,-1
 296 64 l 1,22,-1
 296 56.703125 l 1,23,-1
 296 10 l 1,24,-1
 296 0 l 1,25,-1
 286 0 l 1,26,-1
 74 0 l 1,27,-1
 64 0 l 1,28,-1
 64 10 l 1,29,-1
 64 64 l 1,30,-1
 10 64 l 1,31,-1
 0 64 l 1,0,-1
276 202 m 1,32,-1
 276 256 l 1,33,-1
 84 256 l 1,34,-1
 84 202 l 1,35,-1
 276 202 l 1,32,-1
EndSplineSet
Validated: 524289
EndChar

StartChar: f
Encoding: 102 102 73
Width: 424
Flags: W
LayerCount: 2
Fore
SplineSet
129.086587436 0 m 1,0,-1
 129.086587436 10 l 1,1,-1
 129.086587436 256 l 1,2,-1
 10 256 l 1,3,-1
 0 256 l 1,4,-1
 0 263.296875 l 1,5,-1
 0 310 l 1,6,-1
 0 320 l 1,7,-1
 10 320 l 1,8,-1
 129.086587436 320 l 1,9,-1
 129.086587436 374 l 1,10,-1
 129.086587436 384 l 1,11,-1
 141.208828523 384 l 1,12,-1
 206.66893039 384 l 1,13,-1
 206.66893039 438 l 1,14,-1
 206.66893039 448 l 1,15,-1
 218.791171477 448 l 1,16,-1
 350 448 l 1,17,-1
 360 448 l 1,18,-1
 360 438 l 1,19,-1
 360 374 l 1,20,-1
 360 364 l 1,21,-1
 350 364 l 1,22,-1
 230.913412564 364 l 1,23,-1
 230.913412564 320 l 1,24,-1
 350 320 l 1,25,-1
 360 320 l 1,26,-1
 360 310 l 1,27,-1
 360 263.296875 l 1,28,-1
 360 256 l 1,29,-1
 350 256 l 1,30,-1
 230.913412564 256 l 1,31,-1
 230.913412564 10 l 1,32,-1
 230.913412564 0 l 1,33,-1
 218.791171477 0 l 1,34,-1
 141.208828523 0 l 1,35,-1
 129.086587436 0 l 1,0,-1
EndSplineSet
Validated: 524289
EndChar

StartChar: g
Encoding: 103 103 74
Width: 424
Flags: W
LayerCount: 2
Fore
SplineSet
0 64 m 1,0,-1
 0 73.056640625 l 1,1,-1
 0 246.943359375 l 1,2,-1
 0 256 l 1,3,-1
 10 256 l 1,4,-1
 64 256 l 1,5,-1
 64 310 l 1,6,-1
 64 320 l 1,7,-1
 74 320 l 1,8,-1
 350 320 l 1,9,-1
 360 320 l 1,10,-1
 360 310 l 1,11,-1
 360 -54 l 1,12,-1
 360 -64 l 1,13,-1
 350 -64 l 1,14,-1
 296 -64 l 1,15,-1
 296 -118 l 1,16,-1
 296 -128 l 1,17,-1
 286 -128 l 1,18,-1
 74 -128 l 1,19,-1
 64 -128 l 1,20,-1
 64 -118 l 1,21,-1
 64 -54 l 1,22,-1
 64 -44 l 1,23,-1
 74 -44 l 1,24,-1
 276 -44 l 1,25,-1
 276 0 l 1,26,-1
 74 0 l 1,27,-1
 64 0 l 1,28,-1
 64 10 l 1,29,-1
 64 64 l 1,30,-1
 10 64 l 1,31,-1
 0 64 l 1,0,-1
84 256 m 1,32,-1
 84 64 l 1,33,-1
 276 64 l 1,34,-1
 276 256 l 1,35,-1
 84 256 l 1,32,-1
EndSplineSet
Validated: 524289
EndChar

StartChar: h
Encoding: 104 104 75
Width: 424
Flags: W
LayerCount: 2
Fore
SplineSet
0 0 m 1,0,-1
 0 10 l 1,1,-1
 0 438 l 1,2,-1
 0 448 l 1,3,-1
 10 448 l 1,4,-1
 74 448 l 1,5,-1
 84 448 l 1,6,-1
 84 438 l 1,7,-1
 84 320 l 1,8,-1
 286 320 l 1,9,-1
 296 320 l 1,10,-1
 296 310 l 1,11,-1
 296 256 l 1,12,-1
 350 256 l 1,13,-1
 360 256 l 1,14,-1
 360 246.751953125 l 1,15,-1
 360 10 l 1,16,-1
 360 0 l 1,17,-1
 350 0 l 1,18,-1
 286 0 l 1,19,-1
 276 0 l 1,20,-1
 276 10 l 1,21,-1
 276 256 l 1,22,-1
 84 256 l 1,23,-1
 84 10 l 1,24,-1
 84 0 l 1,25,-1
 74 0 l 1,26,-1
 10 0 l 1,27,-1
 0 0 l 1,0,-1
EndSplineSet
Validated: 524289
EndChar

StartChar: i
Encoding: 105 105 76
Width: 404
Flags: W
LayerCount: 2
Fore
SplineSet
128 0 m 1,0,-1
 128 10 l 1,1,-1
 128 256 l 1,2,-1
 74 256 l 1,3,-1
 64 256 l 1,4,-1
 64 263.296875 l 1,5,-1
 64 310 l 1,6,-1
 64 320 l 1,7,-1
 74 320 l 1,8,-1
 202 320 l 1,9,-1
 212 320 l 1,10,-1
 212 310 l 1,11,-1
 212 64 l 1,12,-1
 266 64 l 1,13,-1
 276 64 l 1,14,-1
 276 56.703125 l 1,15,-1
 276 10 l 1,16,-1
 276 0 l 1,17,-1
 266 0 l 1,18,-1
 138 0 l 1,19,-1
 128 0 l 1,0,-1
128 364 m 1,20,-1
 128 374 l 1,21,-1
 128 438 l 1,22,-1
 128 448 l 1,23,-1
 138 448 l 1,24,-1
 202 448 l 1,25,-1
 212 448 l 1,26,-1
 212 438 l 1,27,-1
 212 374 l 1,28,-1
 212 364 l 1,29,-1
 202 364 l 1,30,-1
 138 364 l 1,31,-1
 128 364 l 1,20,-1
EndSplineSet
Validated: 524289
EndChar

StartChar: j
Encoding: 106 106 77
Width: 404
Flags: W
LayerCount: 2
Fore
SplineSet
128 364 m 1,0,-1
 128 374 l 1,1,-1
 128 438 l 1,2,-1
 128 448 l 1,3,-1
 138 448 l 1,4,-1
 202 448 l 1,5,-1
 212 448 l 1,6,-1
 212 438 l 1,7,-1
 212 374 l 1,8,-1
 212 364 l 1,9,-1
 202 364 l 1,10,-1
 138 364 l 1,11,-1
 128 364 l 1,0,-1
64 -128 m 1,12,-1
 64 -118 l 1,13,-1
 64 -54 l 1,14,-1
 64 -44 l 1,15,-1
 74 -44 l 1,16,-1
 128 -44 l 1,17,-1
 128 310 l 1,18,-1
 128 320 l 1,19,-1
 138 320 l 1,20,-1
 202 320 l 1,21,-1
 212 320 l 1,22,-1
 212 310 l 1,23,-1
 212 -54 l 1,24,-1
 212 -64 l 1,25,-1
 202 -64 l 1,26,-1
 148 -64 l 1,27,-1
 148 -118 l 1,28,-1
 148 -128 l 1,29,-1
 138 -128 l 1,30,-1
 74 -128 l 1,31,-1
 64 -128 l 1,12,-1
EndSplineSet
Validated: 1
EndChar

StartChar: k
Encoding: 107 107 78
Width: 404
Flags: W
LayerCount: 2
Fore
SplineSet
0 0 m 1,0,-1
 0 10 l 1,1,-1
 0 438 l 1,2,-1
 0 448 l 1,3,-1
 10 448 l 1,4,-1
 74 448 l 1,5,-1
 84 448 l 1,6,-1
 84 438 l 1,7,-1
 84 202 l 1,8,-1
 128 202 l 1,9,-1
 128 256 l 1,10,-1
 128 266 l 1,11,-1
 138 266 l 1,12,-1
 192 266 l 1,13,-1
 192 310 l 1,14,-1
 192 320 l 1,15,-1
 202 320 l 1,16,-1
 266 320 l 1,17,-1
 276 320 l 1,18,-1
 276 310 l 1,19,-1
 276 263.296875 l 1,20,-1
 276 256 l 1,21,-1
 266 256 l 1,22,-1
 212 256 l 1,23,-1
 212 193.5625 l 1,24,-1
 212 182 l 1,25,-1
 202 182 l 1,26,-1
 148 182 l 1,27,-1
 148 138 l 1,28,-1
 202 138 l 1,29,-1
 212 138 l 1,30,-1
 212 126.4375 l 1,31,-1
 212 64 l 1,32,-1
 266 64 l 1,33,-1
 276 64 l 1,34,-1
 276 56.703125 l 1,35,-1
 276 10 l 1,36,-1
 276 0 l 1,37,-1
 266 0 l 1,38,-1
 202 0 l 1,39,-1
 192 0 l 1,40,-1
 192 10 l 1,41,-1
 192 64 l 1,42,-1
 138 64 l 1,43,-1
 128 64 l 1,44,-1
 128 72.4375 l 1,45,-1
 128 118 l 1,46,-1
 84 118 l 1,47,-1
 84 10 l 1,48,-1
 84 0 l 1,49,-1
 74 0 l 1,50,-1
 10 0 l 1,51,-1
 0 0 l 1,0,-1
EndSplineSet
Validated: 524289
EndChar

StartChar: l
Encoding: 108 108 79
Width: 404
Flags: W
LayerCount: 2
Fore
SplineSet
128 64 m 1,0,-1
 128 73.375 l 1,1,-1
 128 364 l 1,2,-1
 74 364 l 1,3,-1
 64 364 l 1,4,-1
 64 374 l 1,5,-1
 64 438 l 1,6,-1
 64 448 l 1,7,-1
 74 448 l 1,8,-1
 202 448 l 1,9,-1
 212 448 l 1,10,-1
 212 438 l 1,11,-1
 212 64 l 1,12,-1
 266 64 l 1,13,-1
 276 64 l 1,14,-1
 276 56.703125 l 1,15,-1
 276 10 l 1,16,-1
 276 0 l 1,17,-1
 266 0 l 1,18,-1
 202 0 l 1,19,-1
 192 0 l 1,20,-1
 192 10 l 1,21,-1
 192 64 l 1,22,-1
 138 64 l 1,23,-1
 128 64 l 1,0,-1
EndSplineSet
Validated: 524289
EndChar

StartChar: m
Encoding: 109 109 80
Width: 424
Flags: W
LayerCount: 2
Fore
SplineSet
0 0 m 1,0,-1
 0 10 l 1,1,-1
 0 310 l 1,2,-1
 0 320 l 1,3,-1
 10 320 l 1,4,-1
 141.208828523 320 l 1,5,-1
 153.33106961 320 l 1,6,-1
 153.33106961 310 l 1,7,-1
 153.33106961 256 l 1,8,-1
 206.66893039 256 l 1,9,-1
 206.66893039 310 l 1,10,-1
 206.66893039 320 l 1,11,-1
 218.791171477 320 l 1,12,-1
 286 320 l 1,13,-1
 296 320 l 1,14,-1
 296 310 l 1,15,-1
 296 256 l 1,16,-1
 350 256 l 1,17,-1
 360 256 l 1,18,-1
 360 246.751953125 l 1,19,-1
 360 10 l 1,20,-1
 360 0 l 1,21,-1
 350 0 l 1,22,-1
 286 0 l 1,23,-1
 276 0 l 1,24,-1
 276 10 l 1,25,-1
 276 256 l 1,26,-1
 230.913412564 256 l 1,27,-1
 230.913412564 10 l 1,28,-1
 230.913412564 0 l 1,29,-1
 218.791171477 0 l 1,30,-1
 141.208828523 0 l 1,31,-1
 129.086587436 0 l 1,32,-1
 129.086587436 10 l 1,33,-1
 129.086587436 256 l 1,34,-1
 84 256 l 1,35,-1
 84 10 l 1,36,-1
 84 0 l 1,37,-1
 74 0 l 1,38,-1
 10 0 l 1,39,-1
 0 0 l 1,0,-1
EndSplineSet
Validated: 524289
EndChar

StartChar: n
Encoding: 110 110 81
Width: 424
Flags: W
LayerCount: 2
Fore
SplineSet
0 0 m 1,0,-1
 0 10 l 1,1,-1
 0 310 l 1,2,-1
 0 320 l 1,3,-1
 10 320 l 1,4,-1
 286 320 l 1,5,-1
 296 320 l 1,6,-1
 296 310 l 1,7,-1
 296 256 l 1,8,-1
 350 256 l 1,9,-1
 360 256 l 1,10,-1
 360 246.751953125 l 1,11,-1
 360 10 l 1,12,-1
 360 0 l 1,13,-1
 350 0 l 1,14,-1
 286 0 l 1,15,-1
 276 0 l 1,16,-1
 276 10 l 1,17,-1
 276 256 l 1,18,-1
 84 256 l 1,19,-1
 84 10 l 1,20,-1
 84 0 l 1,21,-1
 74 0 l 1,22,-1
 10 0 l 1,23,-1
 0 0 l 1,0,-1
EndSplineSet
Validated: 524289
EndChar

StartChar: o
Encoding: 111 111 82
Width: 424
Flags: W
LayerCount: 2
Fore
SplineSet
0 64 m 1,0,-1
 0 73.248046875 l 1,1,-1
 0 250.8125 l 1,2,-1
 0 260.060546875 l 1,3,-1
 10 260.060546875 l 1,4,-1
 64 260.060546875 l 1,5,-1
 64 310 l 1,6,-1
 64 320 l 1,7,-1
 74 320 l 1,8,-1
 286 320 l 1,9,-1
 296 320 l 1,10,-1
 296 310 l 1,11,-1
 296 260.060546875 l 1,12,-1
 350 260.060546875 l 1,13,-1
 360 260.060546875 l 1,14,-1
 360 250.8125 l 1,15,-1
 360 73.248046875 l 1,16,-1
 360 64 l 1,17,-1
 350 64 l 1,18,-1
 296 64 l 1,19,-1
 296 10 l 1,20,-1
 296 0 l 1,21,-1
 286 0 l 1,22,-1
 74 0 l 1,23,-1
 64 0 l 1,24,-1
 64 10 l 1,25,-1
 64 64 l 1,26,-1
 10 64 l 1,27,-1
 0 64 l 1,0,-1
276 64 m 1,28,-1
 276 256 l 1,29,-1
 84 256 l 1,30,-1
 84 64 l 1,31,-1
 276 64 l 1,28,-1
EndSplineSet
Validated: 524289
EndChar

StartChar: p
Encoding: 112 112 83
Width: 424
Flags: W
LayerCount: 2
Fore
SplineSet
0 -128 m 1,0,-1
 0 -118 l 1,1,-1
 0 310 l 1,2,-1
 0 320 l 1,3,-1
 10 320 l 1,4,-1
 286 320 l 1,5,-1
 296 320 l 1,6,-1
 296 310 l 1,7,-1
 296 256 l 1,8,-1
 350 256 l 1,9,-1
 360 256 l 1,10,-1
 360 246.943359375 l 1,11,-1
 360 73.056640625 l 1,12,-1
 360 64 l 1,13,-1
 350 64 l 1,14,-1
 296 64 l 1,15,-1
 296 10 l 1,16,-1
 296 0 l 1,17,-1
 286 0 l 1,18,-1
 84 0 l 1,19,-1
 84 -118 l 1,20,-1
 84 -128 l 1,21,-1
 74 -128 l 1,22,-1
 10 -128 l 1,23,-1
 0 -128 l 1,0,-1
276 64 m 1,24,-1
 276 256 l 1,25,-1
 84 256 l 1,26,-1
 84 64 l 1,27,-1
 276 64 l 1,24,-1
EndSplineSet
Validated: 524289
EndChar

StartChar: q
Encoding: 113 113 84
Width: 424
Flags: W
LayerCount: 2
Fore
SplineSet
276 -128 m 1,0,-1
 276 -118 l 1,1,-1
 276 0 l 1,2,-1
 74 0 l 1,3,-1
 64 0 l 1,4,-1
 64 10 l 1,5,-1
 64 64 l 1,6,-1
 10 64 l 1,7,-1
 0 64 l 1,8,-1
 0 73.056640625 l 1,9,-1
 0 246.943359375 l 1,10,-1
 0 256 l 1,11,-1
 10 256 l 1,12,-1
 64 256 l 1,13,-1
 64 310 l 1,14,-1
 64 320 l 1,15,-1
 74 320 l 1,16,-1
 350 320 l 1,17,-1
 360 320 l 1,18,-1
 360 310 l 1,19,-1
 360 -118 l 1,20,-1
 360 -128 l 1,21,-1
 350 -128 l 1,22,-1
 286 -128 l 1,23,-1
 276 -128 l 1,0,-1
84 256 m 1,24,-1
 84 64 l 1,25,-1
 276 64 l 1,26,-1
 276 256 l 1,27,-1
 84 256 l 1,24,-1
EndSplineSet
Validated: 524289
EndChar

StartChar: r
Encoding: 114 114 85
Width: 404
Flags: W
LayerCount: 2
Fore
SplineSet
0 0 m 1,0,-1
 0 10 l 1,1,-1
 0 310 l 1,2,-1
 0 320 l 1,3,-1
 10 320 l 1,4,-1
 74 320 l 1,5,-1
 84 320 l 1,6,-1
 84 310 l 1,7,-1
 84 256 l 1,8,-1
 128 256 l 1,9,-1
 128 310 l 1,10,-1
 128 320 l 1,11,-1
 138 320 l 1,12,-1
 266 320 l 1,13,-1
 276 320 l 1,14,-1
 276 310 l 1,15,-1
 276 263.296875 l 1,16,-1
 276 256 l 1,17,-1
 266 256 l 1,18,-1
 148 256 l 1,19,-1
 148 202 l 1,20,-1
 148 192 l 1,21,-1
 138 192 l 1,22,-1
 84 192 l 1,23,-1
 84 10 l 1,24,-1
 84 0 l 1,25,-1
 74 0 l 1,26,-1
 10 0 l 1,27,-1
 0 0 l 1,0,-1
EndSplineSet
Validated: 524289
EndChar

StartChar: s
Encoding: 115 115 86
Width: 424
Flags: W
LayerCount: 2
Fore
SplineSet
0 182 m 1,0,-1
 0 192 l 1,1,-1
 0 256 l 1,2,-1
 0 266 l 1,3,-1
 10 266 l 1,4,-1
 64 266 l 1,5,-1
 64 310 l 1,6,-1
 64 320 l 1,7,-1
 74 320 l 1,8,-1
 350 320 l 1,9,-1
 360 320 l 1,10,-1
 360 310 l 1,11,-1
 360 263.296875 l 1,12,-1
 360 256 l 1,13,-1
 350 256 l 1,14,-1
 84 256 l 1,15,-1
 84 202 l 1,16,-1
 286 202 l 1,17,-1
 296 202 l 1,18,-1
 296 192 l 1,19,-1
 296 138 l 1,20,-1
 350 138 l 1,21,-1
 360 138 l 1,22,-1
 360 129.190429688 l 1,23,-1
 360 72.8095703125 l 1,24,-1
 360 64 l 1,25,-1
 350 64 l 1,26,-1
 296 64 l 1,27,-1
 296 10 l 1,28,-1
 296 0 l 1,29,-1
 286 0 l 1,30,-1
 10 0 l 1,31,-1
 0 0 l 1,32,-1
 0 10 l 1,33,-1
 0 56.703125 l 1,34,-1
 0 64 l 1,35,-1
 10 64 l 1,36,-1
 276 64 l 1,37,-1
 276 118 l 1,38,-1
 74 118 l 1,39,-1
 64 118 l 1,40,-1
 64 128 l 1,41,-1
 64 182 l 1,42,-1
 10 182 l 1,43,-1
 0 182 l 1,0,-1
EndSplineSet
Validated: 524289
EndChar

StartChar: t
Encoding: 116 116 87
Width: 424
Flags: W
LayerCount: 2
Fore
SplineSet
129.086587436 64 m 1,0,-1
 129.086587436 74 l 1,1,-1
 129.086587436 256 l 1,2,-1
 10 256 l 1,3,-1
 0 256 l 1,4,-1
 0 263.296875 l 1,5,-1
 0 310 l 1,6,-1
 0 320 l 1,7,-1
 10 320 l 1,8,-1
 129.086587436 320 l 1,9,-1
 129.086587436 438 l 1,10,-1
 129.086587436 448 l 1,11,-1
 141.208828523 448 l 1,12,-1
 218.791171477 448 l 1,13,-1
 230.913412564 448 l 1,14,-1
 230.913412564 438 l 1,15,-1
 230.913412564 320 l 1,16,-1
 350 320 l 1,17,-1
 360 320 l 1,18,-1
 360 310 l 1,19,-1
 360 263.296875 l 1,20,-1
 360 256 l 1,21,-1
 350 256 l 1,22,-1
 230.913412564 256 l 1,23,-1
 230.913412564 64 l 1,24,-1
 350 64 l 1,25,-1
 360 64 l 1,26,-1
 360 56.703125 l 1,27,-1
 360 10 l 1,28,-1
 360 0 l 1,29,-1
 350 0 l 1,30,-1
 218.791171477 0 l 1,31,-1
 206.66893039 0 l 1,32,-1
 206.66893039 10 l 1,33,-1
 206.66893039 64 l 1,34,-1
 141.208828523 64 l 1,35,-1
 129.086587436 64 l 1,0,-1
EndSplineSet
Validated: 524289
EndChar

StartChar: u
Encoding: 117 117 88
Width: 424
Flags: W
LayerCount: 2
Fore
SplineSet
0 64 m 1,0,-1
 0 73.248046875 l 1,1,-1
 0 310 l 1,2,-1
 0 320 l 1,3,-1
 10 320 l 1,4,-1
 74 320 l 1,5,-1
 84 320 l 1,6,-1
 84 310 l 1,7,-1
 84 64 l 1,8,-1
 276 64 l 1,9,-1
 276 310 l 1,10,-1
 276 320 l 1,11,-1
 286 320 l 1,12,-1
 350 320 l 1,13,-1
 360 320 l 1,14,-1
 360 310 l 1,15,-1
 360 10 l 1,16,-1
 360 0 l 1,17,-1
 350 0 l 1,18,-1
 74 0 l 1,19,-1
 64 0 l 1,20,-1
 64 10 l 1,21,-1
 64 64 l 1,22,-1
 10 64 l 1,23,-1
 0 64 l 1,0,-1
EndSplineSet
Validated: 524289
EndChar

StartChar: v
Encoding: 118 118 89
Width: 424
Flags: W
LayerCount: 2
Fore
SplineSet
0 118 m 1,0,-1
 0 127.504882812 l 1,1,-1
 0 310 l 1,2,-1
 0 320 l 1,3,-1
 10 320 l 1,4,-1
 74 320 l 1,5,-1
 84 320 l 1,6,-1
 84 310 l 1,7,-1
 84 138 l 1,8,-1
 141.208828523 138 l 1,9,-1
 153.33106961 138 l 1,10,-1
 153.33106961 126.4375 l 1,11,-1
 153.33106961 64 l 1,12,-1
 206.66893039 64 l 1,13,-1
 206.66893039 126.4375 l 1,14,-1
 206.66893039 138 l 1,15,-1
 218.791171477 138 l 1,16,-1
 276 138 l 1,17,-1
 276 310 l 1,18,-1
 276 320 l 1,19,-1
 286 320 l 1,20,-1
 350 320 l 1,21,-1
 360 320 l 1,22,-1
 360 310 l 1,23,-1
 360 127.504882812 l 1,24,-1
 360 118 l 1,25,-1
 350 118 l 1,26,-1
 296 118 l 1,27,-1
 296 72.4375 l 1,28,-1
 296 64 l 1,29,-1
 286 64 l 1,30,-1
 230.913412564 64 l 1,31,-1
 230.913412564 10 l 1,32,-1
 230.913412564 0 l 1,33,-1
 218.791171477 0 l 1,34,-1
 141.208828523 0 l 1,35,-1
 129.086587436 0 l 1,36,-1
 129.086587436 10 l 1,37,-1
 129.086587436 64 l 1,38,-1
 74 64 l 1,39,-1
 64 64 l 1,40,-1
 64 72.4375 l 1,41,-1
 64 118 l 1,42,-1
 10 118 l 1,43,-1
 0 118 l 1,0,-1
EndSplineSet
Validated: 524289
EndChar

StartChar: w
Encoding: 119 119 90
Width: 424
Flags: W
LayerCount: 2
Fore
SplineSet
0 64 m 1,0,-1
 0 73.248046875 l 1,1,-1
 0 310 l 1,2,-1
 0 320 l 1,3,-1
 10 320 l 1,4,-1
 74 320 l 1,5,-1
 84 320 l 1,6,-1
 84 310 l 1,7,-1
 84 64 l 1,8,-1
 129.086587436 64 l 1,9,-1
 129.086587436 246 l 1,10,-1
 129.086587436 256 l 1,11,-1
 141.208828523 256 l 1,12,-1
 218.791171477 256 l 1,13,-1
 230.913412564 256 l 1,14,-1
 230.913412564 246 l 1,15,-1
 230.913412564 64 l 1,16,-1
 276 64 l 1,17,-1
 276 310 l 1,18,-1
 276 320 l 1,19,-1
 286 320 l 1,20,-1
 350 320 l 1,21,-1
 360 320 l 1,22,-1
 360 310 l 1,23,-1
 360 73.248046875 l 1,24,-1
 360 64 l 1,25,-1
 350 64 l 1,26,-1
 296 64 l 1,27,-1
 296 10 l 1,28,-1
 296 0 l 1,29,-1
 286 0 l 1,30,-1
 218.791171477 0 l 1,31,-1
 206.66893039 0 l 1,32,-1
 206.66893039 10 l 1,33,-1
 206.66893039 64 l 1,34,-1
 153.33106961 64 l 1,35,-1
 153.33106961 10 l 1,36,-1
 153.33106961 0 l 1,37,-1
 141.208828523 0 l 1,38,-1
 74 0 l 1,39,-1
 64 0 l 1,40,-1
 64 10 l 1,41,-1
 64 64 l 1,42,-1
 10 64 l 1,43,-1
 0 64 l 1,0,-1
EndSplineSet
Validated: 524289
EndChar

StartChar: x
Encoding: 120 120 91
Width: 424
Flags: W
LayerCount: 2
Fore
SplineSet
0 182 m 1,0,-1
 0 191.275390625 l 1,1,-1
 0 310 l 1,2,-1
 0 320 l 1,3,-1
 10 320 l 1,4,-1
 74 320 l 1,5,-1
 84 320 l 1,6,-1
 84 310 l 1,7,-1
 84 202 l 1,8,-1
 276 202 l 1,9,-1
 276 310 l 1,10,-1
 276 320 l 1,11,-1
 286 320 l 1,12,-1
 350 320 l 1,13,-1
 360 320 l 1,14,-1
 360 310 l 1,15,-1
 360 191.275390625 l 1,16,-1
 360 182 l 1,17,-1
 350 182 l 1,18,-1
 296 182 l 1,19,-1
 296 148 l 1,20,-1
 350 148 l 1,21,-1
 360 148 l 1,22,-1
 360 138 l 1,23,-1
 360 10 l 1,24,-1
 360 0 l 1,25,-1
 350 0 l 1,26,-1
 286 0 l 1,27,-1
 276 0 l 1,28,-1
 276 10 l 1,29,-1
 276 128 l 1,30,-1
 84 128 l 1,31,-1
 84 10 l 1,32,-1
 84 0 l 1,33,-1
 74 0 l 1,34,-1
 10 0 l 1,35,-1
 0 0 l 1,36,-1
 0 10 l 1,37,-1
 0 138 l 1,38,-1
 0 148 l 1,39,-1
 10 148 l 1,40,-1
 64 148 l 1,41,-1
 64 182 l 1,42,-1
 10 182 l 1,43,-1
 0 182 l 1,0,-1
EndSplineSet
Validated: 524289
EndChar

StartChar: y
Encoding: 121 121 92
Width: 424
Flags: W
LayerCount: 2
Fore
SplineSet
0 64 m 1,0,-1
 0 73.248046875 l 1,1,-1
 0 310 l 1,2,-1
 0 320 l 1,3,-1
 10 320 l 1,4,-1
 74 320 l 1,5,-1
 84 320 l 1,6,-1
 84 310 l 1,7,-1
 84 64 l 1,8,-1
 276 64 l 1,9,-1
 276 310 l 1,10,-1
 276 320 l 1,11,-1
 286 320 l 1,12,-1
 350 320 l 1,13,-1
 360 320 l 1,14,-1
 360 310 l 1,15,-1
 360 -54 l 1,16,-1
 360 -64 l 1,17,-1
 350 -64 l 1,18,-1
 296 -64 l 1,19,-1
 296 -118 l 1,20,-1
 296 -128 l 1,21,-1
 286 -128 l 1,22,-1
 74 -128 l 1,23,-1
 64 -128 l 1,24,-1
 64 -118 l 1,25,-1
 64 -54 l 1,26,-1
 64 -44 l 1,27,-1
 74 -44 l 1,28,-1
 276 -44 l 1,29,-1
 276 0 l 1,30,-1
 74 0 l 1,31,-1
 64 0 l 1,32,-1
 64 10 l 1,33,-1
 64 64 l 1,34,-1
 10 64 l 1,35,-1
 0 64 l 1,0,-1
EndSplineSet
Validated: 524289
EndChar

StartChar: z
Encoding: 122 122 93
Width: 424
Flags: W
LayerCount: 2
Fore
SplineSet
0 0 m 1,0,-1
 0 10 l 1,1,-1
 0 138 l 1,2,-1
 0 148 l 1,3,-1
 10 148 l 1,4,-1
 64 148 l 1,5,-1
 64 193.5625 l 1,6,-1
 64 202 l 1,7,-1
 74 202 l 1,8,-1
 276 202 l 1,9,-1
 276 256 l 1,10,-1
 10 256 l 1,11,-1
 0 256 l 1,12,-1
 0 263.296875 l 1,13,-1
 0 310 l 1,14,-1
 0 320 l 1,15,-1
 10 320 l 1,16,-1
 350 320 l 1,17,-1
 360 320 l 1,18,-1
 360 310 l 1,19,-1
 360 191.275390625 l 1,20,-1
 360 182 l 1,21,-1
 350 182 l 1,22,-1
 296 182 l 1,23,-1
 296 136.4375 l 1,24,-1
 296 128 l 1,25,-1
 286 128 l 1,26,-1
 84 128 l 1,27,-1
 84 64 l 1,28,-1
 350 64 l 1,29,-1
 360 64 l 1,30,-1
 360 56.703125 l 1,31,-1
 360 10 l 1,32,-1
 360 0 l 1,33,-1
 350 0 l 1,34,-1
 10 0 l 1,35,-1
 0 0 l 1,0,-1
EndSplineSet
Validated: 524289
EndChar

StartChar: braceleft
Encoding: 123 123 94
Width: 384
Flags: W
LayerCount: 2
Fore
SplineSet
118 0 m 1,0,-1
 118 182 l 1,1,-1
 64 182 l 1,2,-1
 54 182 l 1,3,-1
 54 192 l 1,4,-1
 54 256 l 1,5,-1
 54 266 l 1,6,-1
 64 266 l 1,7,-1
 118 266 l 1,8,-1
 118 448 l 1,9,-1
 118 458 l 1,10,-1
 128 458 l 1,11,-1
 182 458 l 1,12,-1
 182 512 l 1,13,-1
 182 522 l 1,14,-1
 192 522 l 1,15,-1
 256 522 l 1,16,-1
 266 522 l 1,17,-1
 266 512 l 1,18,-1
 266 448 l 1,19,-1
 266 438 l 1,20,-1
 256 438 l 1,21,-1
 202 438 l 1,22,-1
 202 10 l 1,23,-1
 256 10 l 1,24,-1
 266 10 l 1,25,-1
 266 0 l 1,26,-1
 266 -64 l 1,27,-1
 266 -74 l 1,28,-1
 256 -74 l 1,29,-1
 192 -74 l 1,30,-1
 182 -74 l 1,31,-1
 182 -64 l 1,32,-1
 182 -10 l 1,33,-1
 128 -10 l 1,34,-1
 118 -10 l 1,35,-1
 118 0 l 1,0,-1
EndSplineSet
Validated: 5
EndChar

StartChar: bar
Encoding: 124 124 95
Width: 384
Flags: W
LayerCount: 2
Fore
SplineSet
118 -64 m 1,0,-1
 118 512 l 1,1,-1
 118 522 l 1,2,-1
 128 522 l 1,3,-1
 192 522 l 1,4,-1
 202 522 l 1,5,-1
 202 512 l 1,6,-1
 202 -64 l 1,7,-1
 202 -74 l 1,8,-1
 192 -74 l 1,9,-1
 128 -74 l 1,10,-1
 118 -74 l 1,11,-1
 118 -64 l 1,0,-1
EndSplineSet
Validated: 1
EndChar

StartChar: braceright
Encoding: 125 125 96
Width: 384
Flags: W
LayerCount: 2
Fore
SplineSet
54 448 m 1,0,-1
 54 512 l 1,1,-1
 54 522 l 1,2,-1
 64 522 l 1,3,-1
 128 522 l 1,4,-1
 138 522 l 1,5,-1
 138 512 l 1,6,-1
 138 458 l 1,7,-1
 192 458 l 1,8,-1
 202 458 l 1,9,-1
 202 448 l 1,10,-1
 202 266 l 1,11,-1
 256 266 l 1,12,-1
 266 266 l 1,13,-1
 266 256 l 1,14,-1
 266 192 l 1,15,-1
 266 182 l 1,16,-1
 256 182 l 1,17,-1
 202 182 l 1,18,-1
 202 0 l 1,19,-1
 202 -10 l 1,20,-1
 192 -10 l 1,21,-1
 138 -10 l 1,22,-1
 138 -64 l 1,23,-1
 138 -74 l 1,24,-1
 128 -74 l 1,25,-1
 64 -74 l 1,26,-1
 54 -74 l 1,27,-1
 54 -64 l 1,28,-1
 54 0 l 1,29,-1
 54 10 l 1,30,-1
 64 10 l 1,31,-1
 118 10 l 1,32,-1
 118 438 l 1,33,-1
 64 438 l 1,34,-1
 54 438 l 1,35,-1
 54 448 l 1,0,-1
EndSplineSet
Validated: 5
EndChar

StartChar: asciitilde
Encoding: 126 126 97
Width: 384
Flags: W
LayerCount: 2
Fore
SplineSet
-10 192 m 1,0,-1
 -10 256 l 1,1,-1
 -10 266 l 1,2,-1
 0 266 l 1,3,-1
 54 266 l 1,4,-1
 54 320 l 1,5,-1
 54 330 l 1,6,-1
 64 330 l 1,7,-1
 128 330 l 1,8,-1
 138 330 l 1,9,-1
 138 320 l 1,10,-1
 138 266 l 1,11,-1
 192 266 l 1,12,-1
 202 266 l 1,13,-1
 202 256 l 1,14,-1
 202 202 l 1,15,-1
 246 202 l 1,16,-1
 246 256 l 1,17,-1
 246 266 l 1,18,-1
 256 266 l 1,19,-1
 320 266 l 1,20,-1
 330 266 l 1,21,-1
 330 256 l 1,22,-1
 330 192 l 1,23,-1
 330 182 l 1,24,-1
 320 182 l 1,25,-1
 266 182 l 1,26,-1
 266 128 l 1,27,-1
 266 118 l 1,28,-1
 256 118 l 1,29,-1
 192 118 l 1,30,-1
 182 118 l 1,31,-1
 182 128 l 1,32,-1
 182 182 l 1,33,-1
 128 182 l 1,34,-1
 118 182 l 1,35,-1
 118 192 l 1,36,-1
 118 246 l 1,37,-1
 74 246 l 1,38,-1
 74 192 l 1,39,-1
 74 182 l 1,40,-1
 64 182 l 1,41,-1
 0 182 l 1,42,-1
 -10 182 l 1,43,-1
 -10 192 l 1,0,-1
EndSplineSet
Validated: 5
EndChar
